<?xml version="1.0" encoding="UTF-8" standalone="no"?>
<!-- Created with Inkscape (http://www.inkscape.org/) -->

<svg
   xmlns:dc="http://purl.org/dc/elements/1.1/"
   xmlns:cc="http://creativecommons.org/ns#"
   xmlns:rdf="http://www.w3.org/1999/02/22-rdf-syntax-ns#"
   xmlns:svg="http://www.w3.org/2000/svg"
   xmlns="http://www.w3.org/2000/svg"
   xmlns:sodipodi="http://sodipodi.sourceforge.net/DTD/sodipodi-0.dtd"
   xmlns:inkscape="http://www.inkscape.org/namespaces/inkscape"
   width="75"
   height="75"
   id="svg3568"
   version="1.1"
   inkscape:version="0.48.4 r9939"
   viewBox="0 0 75 75"
   sodipodi:docname="serve.svg">
  <defs
     id="defs3570" />
  <sodipodi:namedview
     id="base"
     pagecolor="#ffffff"
     bordercolor="#666666"
     borderopacity="1.0"
     inkscape:pageopacity="0.0"
     inkscape:pageshadow="2"
     inkscape:zoom="2.4375416"
     inkscape:cx="27.84641"
     inkscape:cy="39.673425"
     inkscape:document-units="px"
     inkscape:current-layer="layer1"
     showgrid="false"
     fit-margin-top="0"
     fit-margin-left="0"
     fit-margin-right="0"
     fit-margin-bottom="0"
     inkscape:window-width="467"
     inkscape:window-height="372"
     inkscape:window-x="152"
     inkscape:window-y="148"
     inkscape:window-maximized="0" />
  <metadata
     id="metadata3573">
    <rdf:RDF>
      <cc:Work
         rdf:about="">
        <dc:format>image/svg+xml</dc:format>
        <dc:type
           rdf:resource="http://purl.org/dc/dcmitype/StillImage" />
        <dc:title></dc:title>
      </cc:Work>
    </rdf:RDF>
  </metadata>
  <g
     inkscape:label="Layer 1"
     inkscape:groupmode="layer"
     id="layer1"
     transform="translate(-391.1563,-518.81881)">
    <path
       d="m 439.1652,546.84851 c -0.53621,0.25254 1.0413,0.98768 2.29189,1.97881 1.25059,0.9894 1.98054,2.96821 1.98054,3.75004 0,0.78011 -0.4186,2.70875 0.0502,2.86443 0.46875,0.1574 1.3561,-1.61557 1.04302,-3.49059 -0.31308,-1.87502 -2.81253,-6.30139 -5.36561,-5.10269 z m 7.50009,14.53142 c -0.88389,6.50896 -5.26009,13.07153 -8.07262,14.94656 -2.81254,1.87502 -6.14572,-1.0413 -7.86506,-1.87503 -1.71762,-0.83372 -4.37448,0.15741 -5.72712,0.67806 -1.35611,0.52064 -1.09492,2.08259 -0.83373,2.76064 0.25946,0.67632 -0.93924,0.36497 -2.29189,0.20757 -1.3561,-0.15568 -5.15631,-1.24887 -8.75068,-6.82377 -3.59263,-5.57144 -3.59263,-13.4884 -2.08258,-20.31216 1.50832,-6.82204 6.14571,-8.64517 7.34268,-8.69706 1.1987,-0.0536 4.34507,1.81275 5.2082,2.60324 1.25059,1.14681 3.59437,-0.20757 3.69815,0.46875 0.10379,0.67806 -0.31308,1.51178 1.82313,2.0307 2.13621,0.52238 2.91632,-2.44756 3.07372,-3.17577 0.15568,-0.72995 1.71762,-0.36498 3.69643,-0.88562 1.9788,-0.52065 4.63566,-0.93751 8.12624,2.13621 3.48886,3.07199 3.54075,9.42527 2.65513,15.93768 z m 2.24,-10.41813 c -1.14508,-4.58204 -4.0614,-8.95652 -7.55198,-9.73835 -3.49059,-0.78184 -8.48949,0.25946 -8.48949,0.25946 0,0 2.29188,-3.38508 2.34377,-4.58378 0.0519,-1.19696 0.93751,-1.19696 -0.78183,-1.61383 -1.71762,-0.41686 -2.65686,-1.04302 -3.17578,-0.36497 -0.52237,0.67805 -2.49945,3.38507 -2.86615,4.58377 -0.36497,1.19697 -0.20757,2.44756 -0.72822,1.40627 -0.52064,-1.04303 -1.87502,-3.2294 -2.86442,-4.27069 -0.99113,-1.0413 -3.43869,-0.36498 -2.1881,0.46875 1.25059,0.83373 3.54074,2.75891 3.90572,3.90572 0.3667,1.14681 0.57427,1.97881 -0.20757,2.34378 -0.78184,0.36497 -3.43869,-0.0519 -4.3762,-0.78184 -0.93579,-0.72821 -2.23827,-2.23999 -2.54962,-3.95761 -0.31308,-1.71935 -0.41859,-3.33318 -0.78183,-3.80193 -0.36498,-0.46876 -0.36498,-0.98941 0,-1.14508 0.36324,-0.15741 3.8002,-0.52238 5.46766,0 1.66745,0.52065 2.65685,1.04129 3.33318,2.65513 0.2854,0.67978 -0.0519,1.66572 0.67805,1.61556 0.72821,-0.0536 1.51005,-0.62616 0.46875,-2.50118 -1.04129,-1.87503 -2.9682,-3.59264 -6.35501,-3.59264 -3.38507,0 -2.91631,0.41513 -4.1669,-0.15741 -1.25059,-0.57254 -2.44756,-1.04129 -2.96821,-0.15567 -0.52065,0.88562 0.41686,0.832 1.35437,1.92691 0.93751,1.09319 1.76951,4.84323 1.76951,5.57318 0,0.72994 0.15741,1.09491 -0.15567,1.14507 -0.31135,0.0519 -4.16518,0.98941 -6.30139,3.43697 -2.13621,2.44929 -3.54248,7.76127 -3.90572,11.92818 -0.36497,4.16691 0.15567,10.83327 3.69642,16.8752 3.54248,6.0402 6.66636,7.81317 9.84387,7.86506 3.17923,0.0502 6.45879,-0.57427 7.70938,-1.40627 1.25059,-0.83373 2.34378,-1.87502 2.86443,-1.45816 0.52064,0.41514 4.73944,2.60324 6.77014,1.66573 2.03243,-0.93751 6.4069,-6.09382 7.96884,-10.98895 1.56367,-4.89685 3.38507,-12.55261 2.24,-17.13638"
       style="fill:#231f20;fill-opacity:1;fill-rule:nonzero;stroke:none"
       id="path3122"
       inkscape:connector-curvature="0" />
  </g>
</svg>
