<?xml version="1.0" encoding="UTF-8" standalone="no"?>
<!-- Created with Inkscape (http://www.inkscape.org/) -->

<svg
   xmlns:dc="http://purl.org/dc/elements/1.1/"
   xmlns:cc="http://creativecommons.org/ns#"
   xmlns:rdf="http://www.w3.org/1999/02/22-rdf-syntax-ns#"
   xmlns:svg="http://www.w3.org/2000/svg"
   xmlns="http://www.w3.org/2000/svg"
   xmlns:sodipodi="http://sodipodi.sourceforge.net/DTD/sodipodi-0.dtd"
   xmlns:inkscape="http://www.inkscape.org/namespaces/inkscape"
   width="75"
   height="75"
   id="svg3568"
   version="1.1"
   inkscape:version="0.48.4 r9939"
   viewBox="0 0 75 75"
   sodipodi:docname="fish.svg">
  <defs
     id="defs3570" />
  <sodipodi:namedview
     id="base"
     pagecolor="#ffffff"
     bordercolor="#666666"
     borderopacity="1.0"
     inkscape:pageopacity="0.0"
     inkscape:pageshadow="2"
     inkscape:zoom="2.4375416"
     inkscape:cx="27.84641"
     inkscape:cy="39.673425"
     inkscape:document-units="px"
     inkscape:current-layer="layer1"
     showgrid="false"
     fit-margin-top="0"
     fit-margin-left="0"
     fit-margin-right="0"
     fit-margin-bottom="0"
     inkscape:window-width="467"
     inkscape:window-height="372"
     inkscape:window-x="152"
     inkscape:window-y="148"
     inkscape:window-maximized="0" />
  <metadata
     id="metadata3573">
    <rdf:RDF>
      <cc:Work
         rdf:about="">
        <dc:format>image/svg+xml</dc:format>
        <dc:type
           rdf:resource="http://purl.org/dc/dcmitype/StillImage" />
        <dc:title></dc:title>
      </cc:Work>
    </rdf:RDF>
  </metadata>
  <g
     inkscape:label="Layer 1"
     inkscape:groupmode="layer"
     id="layer1"
     transform="translate(-391.1563,-518.81881)">
    <path
       d="m 452.70113,550.35049 c -0.75589,0.97384 -3.20864,3.17405 -4.18074,3.78637 -0.97384,0.61233 -4.54226,2.37491 -6.52453,3.06335 -1.98399,0.6867 -3.83998,1.07416 -3.60474,1.54983 0.46875,0.97383 5.98312,-1.47546 8.5777,-2.66378 2.59632,-1.18659 4.14616,-2.08605 5.5161,-3.82442 1.36994,-1.72454 2.63091,-3.27437 2.02032,-3.71199 -0.61406,-0.42551 -1.04649,0.82508 -1.80411,1.80064 z m -1.08108,11.43695 c -2.2348,2.94918 -6.66981,4.8242 -9.2644,5.72539 -2.59459,0.89945 -8.36322,1.58615 -13.91564,1.54983 -5.55242,-0.038 -12.25683,-2.0134 -17.55671,-5.18745 -5.29815,-3.17577 -8.07608,-9.70029 -8.39954,-10.6378 -0.32519,-0.93751 0.50335,-1.51351 1.1174,-1.66227 0.61232,-0.13838 2.16216,1.48756 4.7948,3.09967 2.63091,1.62421 6.20106,2.67415 12.00429,3.75004 5.80496,1.08627 13.23066,0.26119 13.51953,0.22486 0.28886,-0.038 1.36994,-0.15048 0.97383,-0.5881 -0.39783,-0.42551 -1.91134,0.18854 -3.71372,0.26292 -1.80237,0.0623 -4.32604,-0.22487 -6.48992,-0.36324 -2.16216,-0.14876 -8.61576,-1.1866 -11.75176,-2.08605 -3.13599,-0.9133 -7.96711,-4.43848 -8.54484,-4.76367 -0.57599,-0.32518 0.4653,-1.73664 0.8666,-1.37513 2.7762,2.56346 9.58959,4.51285 14.34806,5.52474 4.75848,1.00151 9.55328,0.0259 18.09639,-2.09988 8.54484,-2.1241 10.92321,-5.58701 11.28472,-5.97447 0.35979,-0.39957 2.16216,-0.87524 2.9561,-1.01189 0.79222,-0.15049 1.94594,-3.75004 2.08951,-4.61318 0.1453,-0.87524 1.04648,0.1747 1.47892,0.67459 0.43416,0.51373 -0.75762,2.75027 -1.00843,3.57535 -0.25427,0.82508 0.71956,1.11221 1.22637,2.08777 0.50335,0.97557 0.57427,3.06162 0.57427,5.45037 0,2.37491 -2.45102,5.47458 -4.68583,8.4376 z m 5.44345,-13.77553 c -0.7213,-1.47546 -1.11567,-1.98746 -1.11567,-1.98746 0,0 0.53967,-2.81253 0.86486,-4.49901 0.32346,-1.70032 1.1174,-2.71394 0.71956,-3.17578 -0.3961,-0.47567 -1.1174,-0.82508 -1.40626,-0.89945 -0.28714,-0.0761 -1.47892,0.36151 -1.76605,0.1747 -0.28886,-0.1747 -1.87502,-0.38746 -1.87502,0.0744 0,0.47567 -0.61233,3.71199 -0.90119,4.82593 -0.28886,1.12432 -0.43243,2.34897 -1.44259,2.6361 -1.00843,0.28886 -3.20691,2.33859 -5.47804,3.7881 -2.27113,1.4374 -11.57359,4.32604 -16.51195,4.86226 -4.93837,0.53794 -9.22809,0.18854 -14.27542,-1.29903 -5.04734,-1.47545 -8.14874,-3.75004 -8.97728,-4.5388 0,0 -1.29729,-0.61232 -2.19848,-0.28713 -0.90118,0.32519 -1.51524,0.78875 -1.80237,1.62594 -0.28886,0.82335 -0.46876,1.07416 -0.7213,1.54983 -0.25254,0.46184 0,1.11222 0.28714,1.36303 0.28886,0.24908 0.86659,2.44929 0.97383,2.77448 0.10898,0.32518 2.34378,6.34982 7.46377,9.48754 5.11825,3.13772 8.43587,5.39847 15.3565,5.95025 6.92235,0.53622 10.5617,-0.18854 14.60233,-0.576 4.03718,-0.39956 8.97555,-2.19848 11.859,-5.19955 2.88345,-2.98724 6.56085,-6.4882 6.84971,-9.875 0.28713,-3.3868 0.21621,-5.29988 -0.50508,-6.77533"
       style="fill:#231f20;fill-opacity:1;fill-rule:nonzero;stroke:none"
       id="path3124"
       inkscape:connector-curvature="0" />
  </g>
</svg>
