<?xml version="1.0" encoding="UTF-8" standalone="no"?>
<!-- Created with Inkscape (http://www.inkscape.org/) -->

<svg
   xmlns:dc="http://purl.org/dc/elements/1.1/"
   xmlns:cc="http://creativecommons.org/ns#"
   xmlns:rdf="http://www.w3.org/1999/02/22-rdf-syntax-ns#"
   xmlns:svg="http://www.w3.org/2000/svg"
   xmlns="http://www.w3.org/2000/svg"
   xmlns:sodipodi="http://sodipodi.sourceforge.net/DTD/sodipodi-0.dtd"
   xmlns:inkscape="http://www.inkscape.org/namespaces/inkscape"
   width="75"
   height="75"
   id="svg3568"
   version="1.1"
   inkscape:version="0.48.4 r9939"
   viewBox="0 0 75 75"
   sodipodi:docname="meal.svg">
  <defs
     id="defs3570" />
  <sodipodi:namedview
     id="base"
     pagecolor="#ffffff"
     bordercolor="#666666"
     borderopacity="1.0"
     inkscape:pageopacity="0.0"
     inkscape:pageshadow="2"
     inkscape:zoom="2.4375416"
     inkscape:cx="27.84641"
     inkscape:cy="39.673425"
     inkscape:document-units="px"
     inkscape:current-layer="layer1"
     showgrid="false"
     fit-margin-top="0"
     fit-margin-left="0"
     fit-margin-right="0"
     fit-margin-bottom="0"
     inkscape:window-width="467"
     inkscape:window-height="372"
     inkscape:window-x="152"
     inkscape:window-y="148"
     inkscape:window-maximized="0" />
  <metadata
     id="metadata3573">
    <rdf:RDF>
      <cc:Work
         rdf:about="">
        <dc:format>image/svg+xml</dc:format>
        <dc:type
           rdf:resource="http://purl.org/dc/dcmitype/StillImage" />
        <dc:title></dc:title>
      </cc:Work>
    </rdf:RDF>
  </metadata>
  <g
     inkscape:label="Layer 1"
     inkscape:groupmode="layer"
     id="layer1"
     transform="translate(-391.1563,-518.81881)">
    <path
       d="m 433.41432,545.01482 c -3.22767,2.50118 -8.48776,5.88798 -10.72776,7.50009 -2.23999,1.61383 -6.30312,3.07545 -8.3857,3.75004 -2.08259,0.67459 -2.24,1.46335 -1.98054,1.87502 0.26292,0.41341 1.06897,-0.42378 2.3974,-0.67459 2.76064,-0.52584 7.70938,-3.59956 11.97834,-6.2495 4.2707,-2.66204 6.77188,-4.90031 9.48063,-6.98808 2.70702,-2.07394 2.76064,-2.02378 2.34378,-2.54962 -0.4186,-0.512 -1.87503,0.83719 -5.10615,3.33664 z m 14.22007,14.18894 c -1.48411,0.8614 -4.37621,2.49945 -6.09383,3.43696 -1.71934,0.93751 -2.73296,1.65016 -3.6722,1.48756 -0.93751,-0.15048 -2.57902,-0.70054 -4.37448,0.47568 -1.79718,1.16064 -1.56194,3.66182 -2.73469,4.28625 -1.17103,0.62443 -6.9535,3.36259 -9.37511,4.46269 -2.42162,1.088 -3.43696,1.47546 -3.90572,0.38746 -0.46876,-1.1001 -1.4841,-3.43696 -0.78184,-4.1375 0.704,-0.71265 2.96821,-2.66205 2.18811,-5.16323 -0.78184,-2.49945 -3.4387,-3.12388 -5.23415,-2.49945 -1.05859,0.36324 -1.40627,0.55005 -1.95459,-0.46184 -0.54659,-1.02572 -2.42162,-3.67566 -1.40627,-4.92452 1.01708,-1.25059 2.57902,-4.37621 3.4387,-3.82616 0.85967,0.53795 3.04604,0.77492 4.53015,-0.0865 1.48583,-0.85102 2.8921,-2.81253 2.57902,-4.45058 -0.31308,-1.63805 -0.704,-2.73815 -0.15568,-3.27437 0.54659,-0.55005 4.37447,-4.30009 6.01425,-6.10074 1.64151,-1.80064 1.79719,-3.67566 4.53188,-3.36258 2.7347,0.31308 9.06203,1.48756 9.99954,1.96323 0.93751,0.46184 1.48584,0.62444 1.48584,1.47373 0,0.86313 1.09318,1.72627 0.46875,2.1881 -0.62616,0.47568 -2.26767,1.10011 -2.57902,2.73816 -0.31308,1.63632 -0.23351,3.51134 1.01535,4.37447 1.25059,0.86313 2.50118,1.32497 2.96994,1.17448 0.46876,-0.16259 0.93578,-0.38745 1.17102,0.23871 0.23525,0.62443 1.32843,4.68582 1.95286,6.39998 0.62616,1.72454 1.40627,2.34897 -0.0778,3.19999 z m 1.32842,-6.87566 c -1.40626,-4.68756 -1.71934,-6.01253 -2.1881,-6.39999 -0.46875,-0.38745 -1.17275,-0.0744 -2.18637,0.77492 -1.01708,0.86313 -1.33016,-0.15048 -1.95459,-1.47545 -0.62443,-1.33708 1.17275,-1.65016 2.81253,-2.27459 1.64151,-0.62443 0.23525,-3.51307 -0.15567,-4.91242 -0.39092,-1.41146 -0.15741,-1.96151 -2.65686,-2.90075 -2.49945,-0.93578 -10.4683,-2.26075 -12.26548,-2.26075 -1.79718,0 -3.43696,1.48583 -5.54723,3.98702 -2.10853,2.49945 -5.85858,6.39998 -6.95176,7.57446 -1.09492,1.17448 -0.0796,1.87502 0.31135,2.66205 0.39092,0.77491 0.62616,1.87502 -0.70227,3.51307 -1.32843,1.63805 -3.04778,0.0744 -4.06312,-0.47567 -1.01535,-0.53622 -2.65686,1.48756 -3.98356,3.43869 0,0 -0.93751,1.41146 -1.71935,2.49945 -0.78183,1.10011 2.10854,7.58658 2.81254,8.36149 0.70226,0.78876 0.93751,0.62616 2.73469,-0.23697 1.79719,-0.8493 1.79719,-1.24886 3.12388,0.47567 1.33016,1.71243 -0.93751,2.96129 -2.1881,3.75005 -1.24886,0.77491 0.78184,6.01252 2.11027,8.20062 1.32842,2.18638 4.06312,0.38573 7.57792,-1.48929 3.51653,-1.87502 7.26658,-3.97491 8.82852,-4.91069 1.56367,-0.93924 0.54659,-1.96324 1.17102,-3.28821 0.62616,-1.32497 2.50118,-0.86313 3.12561,-0.15048 0.62444,0.70054 2.0307,-0.1626 6.40691,-2.81253 4.37447,-2.66205 6.01598,-3.52518 7.187,-4.22399 1.17276,-0.70054 -0.23351,-2.73816 -1.63978,-7.42571 z m -6.48473,5.96236 c -0.78184,0.31308 -0.98941,0.31308 -1.71935,-0.36151 -0.72822,-0.67633 0.64173,-1.82659 1.25059,-1.82659 0.36497,0 0.9894,0.0623 1.45816,0.37535 0.46875,0.31308 -0.2093,1.49967 -0.9894,1.81275 z m -2.0307,-3.12561 c -0.73513,0.27502 -1.98054,1.87502 -1.35438,3.38853 0.62443,1.51178 1.40627,1.98745 3.17751,1.51178 1.76951,-0.46184 2.76064,-1.51178 2.81253,-2.71221 0.0502,-1.18832 -0.88562,-3.53729 -4.63566,-2.1881 z m -4.42637,-3.06162 c -0.78183,1.03784 -1.82486,1.56194 -2.86615,1.49967 -1.0413,-0.0502 -1.35265,-0.82507 -1.09319,-2.43718 0.25946,-1.62594 0.83373,-1.87502 1.77124,-1.98745 0,0 1.24886,0.11243 1.92518,0.36151 0.67806,0.26292 1.04303,1.51351 0.26292,2.56345 z m -2.96994,-4.01296 c -0.73686,0.1747 -2.13621,1.088 -2.39567,3.12561 -0.25945,2.02378 0.25946,2.8627 1.35265,3.53729 1.09492,0.67459 2.86615,0.36152 4.16864,-0.77491 1.30075,-1.15027 2.23826,-2.92497 1.71934,-4.43848 -0.52237,-1.49967 -3.12561,-1.87502 -4.84496,-1.44951 z m -6.30311,-4.17555 c 0.3667,-0.46184 1.03956,-0.0121 1.35437,-0.19892 1.30248,-0.78703 1.04302,0.19892 0.2093,0.72475 -0.83373,0.52411 -0.72995,0.83719 -1.66573,0.72476 -0.93924,-0.10033 -0.26292,-0.77492 0.10206,-1.25059 z m -0.52065,2.50118 c 1.40627,0 3.59437,-1.61211 4.53188,-2.55135 0.93751,-0.93578 0.36497,-3.27437 -2.91632,-2.23653 -0.97729,0.31308 -2.65685,1.6121 -3.22939,2.71221 -0.57427,1.088 0.20756,2.07567 1.61383,2.07567 z m 3.43696,18.02373 c -0.15567,0.93924 -1.09318,1.51351 -2.29015,2.28843 -1.19697,0.78702 -1.66746,-0.512 -1.71935,-1.29902 -0.0519,-0.77665 0.67805,-2.07568 1.45989,-2.18811 0.7801,-0.10032 0.78356,-0.15048 1.19697,-0.36324 0.9894,-0.52411 1.51005,0.62616 1.35264,1.56194 z m -3.8002,-2.23653 c -0.78703,0.42551 -2.18811,3.64972 -1.30249,4.90031 0.88562,1.25059 2.70875,1.08627 4.27069,0 1.56368,-1.10011 2.60497,-4.22572 1.92692,-5.26355 -0.67632,-1.04995 -2.81253,-0.78703 -4.89512,0.36324 z m -3.38681,-2.23827 c -0.62443,0.67633 -0.9894,1.088 -1.71761,0.88908 -0.72995,-0.21275 -0.52065,-1.20043 -0.10379,-1.6761 0.41514,-0.46184 1.04476,-0.86313 1.45816,-0.93751 0.57254,-0.10033 0.98941,1.04994 0.36324,1.72453 z m -0.25945,-3.12388 c -0.67287,0.0865 -0.83373,1.088 -1.25059,1.03784 -0.41514,-0.0502 -1.30249,0.21102 -1.82141,1.6121 -0.52237,1.41145 -0.20929,2.44929 1.19697,2.54961 1.40627,0.11244 2.96821,-0.98767 3.48886,-2.1881 0.52065,-1.18659 0.57427,-3.32453 -1.61383,-3.01145"
       style="fill:#231f20;fill-opacity:1;fill-rule:nonzero;stroke:none"
       id="path3074"
       inkscape:connector-curvature="0" />
  </g>
</svg>
