<?xml version="1.0" encoding="UTF-8" standalone="no"?>
<!-- Created with Inkscape (http://www.inkscape.org/) -->

<svg
   xmlns:dc="http://purl.org/dc/elements/1.1/"
   xmlns:cc="http://creativecommons.org/ns#"
   xmlns:rdf="http://www.w3.org/1999/02/22-rdf-syntax-ns#"
   xmlns:svg="http://www.w3.org/2000/svg"
   xmlns="http://www.w3.org/2000/svg"
   xmlns:sodipodi="http://sodipodi.sourceforge.net/DTD/sodipodi-0.dtd"
   xmlns:inkscape="http://www.inkscape.org/namespaces/inkscape"
   width="75"
   height="75"
   id="svg3568"
   version="1.1"
   inkscape:version="0.48.4 r9939"
   viewBox="0 0 75 75"
   sodipodi:docname="veggie.svg">
  <defs
     id="defs3570" />
  <sodipodi:namedview
     id="base"
     pagecolor="#ffffff"
     bordercolor="#666666"
     borderopacity="1.0"
     inkscape:pageopacity="0.0"
     inkscape:pageshadow="2"
     inkscape:zoom="2.4375416"
     inkscape:cx="27.84641"
     inkscape:cy="39.673425"
     inkscape:document-units="px"
     inkscape:current-layer="layer1"
     showgrid="false"
     fit-margin-top="0"
     fit-margin-left="0"
     fit-margin-right="0"
     fit-margin-bottom="0"
     inkscape:window-width="467"
     inkscape:window-height="372"
     inkscape:window-x="152"
     inkscape:window-y="148"
     inkscape:window-maximized="0" />
  <metadata
     id="metadata3573">
    <rdf:RDF>
      <cc:Work
         rdf:about="">
        <dc:format>image/svg+xml</dc:format>
        <dc:type
           rdf:resource="http://purl.org/dc/dcmitype/StillImage" />
        <dc:title></dc:title>
      </cc:Work>
    </rdf:RDF>
  </metadata>
  <g
     inkscape:label="Layer 1"
     inkscape:groupmode="layer"
     id="layer1"
     transform="translate(-391.1563,-518.81881)">
    <path
       d="m 447.85172,557.90976 c -1.24367,-0.13146 -2.18637,0.46876 -1.92691,1.09492 0.25946,0.62443 1.09319,0.36497 2.86442,0.36497 1.76951,0 2.86443,-0.46876 2.34378,-0.88562 -0.52065,-0.41686 -1.82313,-0.41686 -3.28129,-0.57427 z m -4.68755,5.62507 c -0.46876,0.41859 0,0.99113 1.04129,1.92864 1.0413,0.93751 1.87502,1.87502 2.39567,1.35437 0.52065,-0.52064 -1.30248,-1.98053 -1.87502,-2.81426 -0.46011,-0.66767 -1.09319,-0.88389 -1.56194,-0.46875 z m -0.31308,-6.14399 c -0.41341,-0.0467 -1.24886,0.98768 -0.72995,1.40627 0.52238,0.41513 1.56368,0 1.82486,-0.31308 0.25946,-0.31308 -0.15567,-0.9894 -1.09491,-1.09319 z m -5.05253,2.0307 c -0.47048,0.0208 -0.25946,0.62443 -0.72821,0.93751 -0.46876,0.31308 -1.56194,0.62443 -0.98941,1.30076 0.57254,0.67805 1.35265,0.99113 2.08259,0.67805 0.72995,-0.31135 1.87503,-3.0201 -0.36497,-2.91632 z m 1.35438,-4.79307 c -0.76281,-0.26465 -2.23827,0.67805 -1.76951,1.56367 0.46875,0.88562 1.61383,0.67633 2.13448,0.52065 0.52065,-0.15567 0.67805,-1.71935 -0.36497,-2.08432 z m -8.02074,0.52238 c -0.81643,-0.16951 -1.61383,0.31135 -1.61383,1.30248 0,0.98941 1.19697,1.19697 2.08259,0.93751 0.88562,-0.26119 1.04129,-1.92864 -0.46876,-2.23999 z m -3.2294,5.10269 c -0.61405,-0.11762 -1.9788,0.72994 -1.30075,1.51178 0.67632,0.78183 0.57254,0.78183 1.71935,0.36324 1.14335,-0.41513 0.93578,-1.6121 -0.4186,-1.87502 z m -6.66636,-0.31135 c -0.49297,-0.16433 -2.08258,0.67632 -1.24886,1.71762 0.83373,1.04302 1.45816,0.67805 2.34205,0.1574 0.88562,-0.52065 -0.15567,-1.56367 -1.09319,-1.87502 z m 3.85383,-7.4482 c -0.75762,-0.19027 -1.71935,0.88562 -1.51005,2.0307 0.2093,1.14681 1.45816,0.93751 2.1881,0.46875 0.72822,-0.46875 0.57254,-2.18637 -0.67805,-2.49945 z m 7.13685,-6.04193 c -0.66422,-0.24735 -1.98054,0.67633 -2.24,1.35438 -0.26119,0.67805 -0.0536,1.82313 1.35265,2.08432 1.40799,0.25946 2.1881,-1.45816 2.13621,-2.13621 -0.0519,-0.67633 -0.83373,-1.14508 -1.24886,-1.30249 z m -5.99004,-2.29188 c -0.67459,-0.0778 -1.25059,0.57427 -0.99113,1.61556 0.26119,1.04129 1.61556,0.62443 2.03242,0.20757 0.41687,-0.41687 0.31135,-1.66746 -1.04129,-1.82313 z m -13.69769,2.70875 c -0.83373,0.46875 -1.30249,0.15567 -2.39567,-0.57254 -1.09492,-0.72995 0.009,-2.35416 1.09318,-2.76064 1.66573,-0.62616 2.44756,-0.0519 2.91632,0.67805 0.46876,0.72821 -0.78184,2.18637 -1.61383,2.65513 z m 0.20756,-4.89513 c -1.5308,-0.33037 -3.22939,1.14508 -4.06312,2.55135 -0.832,1.40627 0.83373,3.59437 3.07372,3.75004 2.23827,0.15741 3.75005,-2.49945 3.69815,-3.69815 -0.0519,-1.19697 -0.78183,-2.18637 -2.70875,-2.60324 z m 43.33307,16.19715 c -1.32842,1.40627 -2.9682,2.34551 -4.14096,4.53188 -1.17102,2.1881 -3.35912,7.7336 -4.2188,10.78137 -0.85794,3.04605 -1.79545,3.75005 -3.20172,3.67048 -1.40626,-0.0761 -2.1881,-3.43696 -2.57902,-6.2495 -0.39091,-2.81253 -0.93751,-4.29663 -2.26594,-6.01425 -1.32843,-1.71935 -6.01598,-0.46875 -13.12515,-0.39092 -7.10917,0.0778 -11.71889,-0.93924 -12.96775,-1.40799 -1.25059,-0.46703 1.95286,-1.71762 4.2188,-3.3574 2.26421,-1.64151 2.65513,-3.04777 4.53015,-10.00127 1.87502,-6.95349 -1.4841,-9.29727 -3.04605,-9.99954 -1.56367,-0.704 -0.4601,-1.34918 0.15568,-1.25059 3.90572,0.62616 10.85921,0.47049 14.76666,4.68928 3.90572,4.2188 4.84323,9.13987 8.4376,11.17057 3.59264,2.0307 9.37511,-0.70227 11.25013,-1.3267 1.87502,-0.62616 2.26421,-0.54832 3.3574,0.62443 1.09491,1.17102 0.1574,3.12561 -1.17103,4.53015 z m -37.13373,9.48062 c -0.78184,0.52065 -1.66746,2.55135 -2.81426,4.00951 -1.14508,1.45815 -0.83373,1.92691 -1.45816,2.03069 -0.62443,0.10552 -0.72822,-0.88562 -1.09319,-1.71934 -0.36497,-0.832 -0.93751,-3.69643 -1.09318,-5.10269 -0.15741,-1.40627 1.15545,-1.38378 2.08258,-1.0413 0.98941,0.36324 3.90745,0.36324 5.00064,0.67632 1.09319,0.31308 0.15567,0.62444 -0.62443,1.14681 z m -8.80257,-5.73058 c -1.01708,0.39092 -3.67394,-0.93751 -7.89274,-5.31198 -4.2188,-4.37448 -5.62333,-9.61035 -4.29663,-11.48538 1.32843,-1.87329 4.45404,-3.74831 10.0791,-4.84323 0,0 1.63978,-0.31308 4.0614,-0.70226 2.42334,-0.39092 5.93814,0.85794 7.81317,3.82788 1.87502,2.9682 0.62443,8.74895 -1.87503,13.04731 -2.49945,4.29664 -6.87565,5.07675 -7.88927,5.46766 z m 21.63886,-23.82869 c 3.20345,0.39092 7.18873,1.01708 8.59327,2.26594 1.40627,1.25059 0.8614,1.87502 0.31308,2.65686 -0.54659,0.78184 -1.09318,1.17102 -1.56194,2.65686 -0.46876,1.4841 -0.85967,-0.39092 -1.71935,-1.95459 -0.85794,-1.56194 -1.3267,-2.57729 -3.75004,-3.98356 -2.41989,-1.40627 -2.18464,-1.67783 -1.87502,-1.64151 z m 22.57983,12.10981 c -2.73643,0.47048 -5.93815,2.73469 -10.23651,2.11026 -4.29491,-0.62616 -3.51481,-5.07847 -3.43697,-6.09382 0.0796,-1.01535 0.78184,-1.64151 2.03243,-4.84323 1.24886,-3.20345 -8.75068,-4.76712 -11.48365,-4.68928 -2.73642,0.0796 -1.56367,0.62616 -2.26767,0.54832 -0.70226,-0.0796 -2.42161,-0.704 -5.15631,-1.09319 -2.73296,-0.39265 -8.51543,0.78011 -13.67001,1.48238 -5.15631,0.70399 -10.15695,2.36972 -13.22894,4.60971 -3.07372,2.24 -1.92864,7.76128 0,10.83327 1.92519,3.07372 4.11329,6.19934 6.45706,7.81317 2.34378,1.61383 7.8028,3.91783 7.76128,4.32258 -0.26119,2.50118 1.43048,8.90809 2.83675,9.68819 1.40627,0.78184 1.64151,0 3.20345,-2.0307 1.56367,-2.03242 2.50118,-4.06312 4.68928,-5.31371 2.18638,-1.24886 7.34269,-1.63978 11.87457,-1.56194 4.53015,0.0778 4.92106,1.4841 5.78074,4.60971 0.85794,3.12389 1.09318,6.17166 3.43869,8.04669 2.34205,1.87502 4.91934,-0.0796 6.32561,-3.36086 1.40799,-3.27956 3.59436,-11.01316 5.78247,-13.28083 2.18637,-2.26421 4.37447,-3.98356 5.15631,-7.10744 0.7801,-3.12561 -3.12562,-5.15804 -5.85858,-4.68928"
       style="fill:#231f20;fill-opacity:1;fill-rule:nonzero;stroke:none"
       id="path3100"
       inkscape:connector-curvature="0" />
  </g>
</svg>
