<?xml version="1.0" encoding="UTF-8" standalone="no"?>
<!-- Created with Inkscape (http://www.inkscape.org/) -->

<svg
   xmlns:dc="http://purl.org/dc/elements/1.1/"
   xmlns:cc="http://creativecommons.org/ns#"
   xmlns:rdf="http://www.w3.org/1999/02/22-rdf-syntax-ns#"
   xmlns:svg="http://www.w3.org/2000/svg"
   xmlns="http://www.w3.org/2000/svg"
   xmlns:sodipodi="http://sodipodi.sourceforge.net/DTD/sodipodi-0.dtd"
   xmlns:inkscape="http://www.inkscape.org/namespaces/inkscape"
   width="75"
   height="75"
   id="svg3568"
   version="1.1"
   inkscape:version="0.48.4 r9939"
   viewBox="0 0 75 75"
   sodipodi:docname="groceries.svg">
  <defs
     id="defs3570" />
  <sodipodi:namedview
     id="base"
     pagecolor="#ffffff"
     bordercolor="#666666"
     borderopacity="1.0"
     inkscape:pageopacity="0.0"
     inkscape:pageshadow="2"
     inkscape:zoom="2.4375416"
     inkscape:cx="16.953464"
     inkscape:cy="42.114806"
     inkscape:document-units="px"
     inkscape:current-layer="layer1"
     showgrid="false"
     fit-margin-top="0"
     fit-margin-left="0"
     fit-margin-right="0"
     fit-margin-bottom="0"
     inkscape:window-width="467"
     inkscape:window-height="372"
     inkscape:window-x="0"
     inkscape:window-y="24"
     inkscape:window-maximized="0" />
  <metadata
     id="metadata3573">
    <rdf:RDF>
      <cc:Work
         rdf:about="">
        <dc:format>image/svg+xml</dc:format>
        <dc:type
           rdf:resource="http://purl.org/dc/dcmitype/StillImage" />
        <dc:title></dc:title>
      </cc:Work>
    </rdf:RDF>
  </metadata>
  <g
     inkscape:label="Layer 1"
     inkscape:groupmode="layer"
     id="layer1"
     transform="translate(-391.1563,-518.81881)">
    <path
       d="m 443.01314,556.52603 c 0.14529,-1.86292 -2.29881,-1.86292 -3.23113,-1.86292 -0.93232,0 -1.72281,0.27503 -1.72281,0.78703 0,1.00151 1.65189,1.00151 2.87135,1.07589 1.22291,0.0744 0.64691,2.08777 0.64691,5.02485 0,2.94918 0.14357,7.32538 0.0709,9.33705 -0.0709,2.0134 0.0727,4.73772 0.576,4.8121 0.50162,0.0761 0.64519,-0.14876 0.93405,-1.14854 0.28714,-1.00151 -0.0727,-5.60085 -0.21621,-8.61403 -0.14357,-3.02529 -0.0727,-7.55025 0.0709,-9.41143 z m 0.43243,-26.21226 c -0.0726,-2.15005 -3.30378,-1.4374 -4.74118,-1.72626 -1.43567,-0.28714 -2.06356,-0.0744 -2.00994,0.576 0.0709,0.86313 3.94896,1.57405 4.88301,1.65015 0.93406,0.0744 0.576,1.14854 0.576,2.01167 0,0.86314 -0.0727,4.88821 -0.0727,6.53836 0,1.65016 0.35806,1.78681 1.00497,1.78681 0.64692,0 0.4307,-1.07416 0.4307,-2.93707 0,-1.87502 0,-5.74961 -0.0709,-7.89966 z m -27.79322,25.92339 c -1.22119,0.0761 -0.86141,1.43913 -0.86141,2.0134 0,0.576 0.13146,3.80021 0.0709,5.02485 -0.0709,1.4374 -0.35978,4.66334 -0.28713,6.53836 0.0709,1.86119 2.44237,1.3613 3.30377,1.07416 0.8614,-0.28713 0.50335,-1.36302 0.50335,-2.01167 0,-0.65037 -0.21621,-2.37491 -0.21621,-3.95069 0,-1.57405 0.14356,-4.59934 0.28713,-6.60063 0.14357,-2.01167 -1.58097,-2.16216 -2.80042,-2.08778 z m 1.86637,-21.18567 c 0.14357,-1.43913 0,-2.8748 -1.29211,-2.72605 -1.2921,0.13838 -1.58096,0.63827 -1.72453,1.49967 -0.14357,0.86314 -0.4307,4.31221 -0.4307,6.32561 0,0 0,2.22443 0.0726,3.51307 0.0709,1.29902 1.22119,1.79891 2.29708,1.72454 1.07762,-0.0623 1.15027,-1.49968 1.15027,-2.8627 0,-1.37513 -0.21622,-6.03847 -0.0727,-7.47414 z m 28.00944,5.6735 c 0,3.01318 0.42897,7.40149 -1.22119,8.18852 -1.65189,0.78702 -6.32042,1.07416 -10.34203,0.99978 -4.01988,-0.0623 -8.47392,-0.0623 -11.70504,-0.0623 -3.23286,0 -9.84041,0.78702 -10.12755,-2.5254 -0.28713,-3.30032 0.14357,-9.1883 0.14357,-9.1883 0.0727,-3.94896 -0.28713,-10.83673 1.36648,-11.56148 1.65016,-0.71265 6.10247,-1.15027 9.62074,-1.15027 3.52172,0 11.92299,0.49989 15.65747,0.49989 3.73447,0 7.39803,0 7.10917,2.8748 -0.28714,2.87481 -0.50162,8.91328 -0.50162,11.92473 z m -0.64692,29.95019 c -0.28714,6.53836 -0.0727,10.55132 -0.50335,13.21337 -0.4307,2.64993 0,3.73793 -4.45058,3.58745 -4.45405,-0.13665 -11.34873,-0.78703 -15.80104,-0.99979 -4.45231,-0.22486 -8.47392,-0.36324 -9.26441,-0.36324 -0.79048,0 -2.80042,-0.0744 -2.58594,-3.01145 0.21622,-2.95091 0.35806,-23.2008 0.14357,-26.86436 -0.0917,-1.57405 -0.0709,-3.29858 0.93405,-3.23631 1.00497,0.0744 6.39133,0.15048 9.76776,0.22486 3.37469,0.0623 4.52323,0.13665 4.95566,-0.22486 0.42897,-0.34941 0.42897,-0.49989 0.93405,-0.49989 0.50162,0 10.3403,0.21275 11.77597,0.21275 1.4374,0 4.52496,-0.49989 4.52496,1.66227 0,2.15005 -0.14357,9.76257 -0.4307,16.2992 z m 1.72453,-20.68751 c 1.14854,-0.71265 1.07589,-3.66183 1.36303,-6.17512 0.28713,-2.51156 0.0727,-7.47414 0.0727,-13.71153 0,-6.2495 -3.37643,-6.61274 -5.81707,-6.61274 -2.44237,0 -8.04495,-0.36324 -12.56818,-0.49989 -4.52496,-0.15049 -11.70505,-0.0761 -15.51217,0.49989 -3.80713,0.57427 -4.23783,4.38831 -4.3814,8.05014 -0.14357,3.66183 -0.0709,13.71326 0,15.64882 0.0727,1.93902 2.16562,3.38853 1.79719,3.73794 -1.36649,1.28864 -1.29384,6.53836 -1.15027,11.27607 0.14357,4.73772 -0.14357,17.29898 -0.21622,22.76145 -0.0709,5.46248 7.68517,3.9507 14.65077,4.23783 6.96561,0.28887 16.73336,1.07589 19.46287,0.78876 2.72778,-0.28887 2.36972,-6.25123 2.58421,-12.85186 0.21621,-6.61101 0.4307,-13.9364 0.86313,-18.67411 0.42897,-4.73772 -0.71956,-6.96215 -1.22118,-7.46204 -0.50335,-0.51372 -1.07762,-0.28886 0.0727,-1.01361"
       style="fill:#231f20;fill-opacity:1;fill-rule:nonzero;stroke:none"
       id="path3048"
       inkscape:connector-curvature="0" />
  </g>
</svg>
