<?xml version="1.0" encoding="UTF-8" standalone="no"?>
<!-- Created with Inkscape (http://www.inkscape.org/) -->

<svg
   xmlns:dc="http://purl.org/dc/elements/1.1/"
   xmlns:cc="http://creativecommons.org/ns#"
   xmlns:rdf="http://www.w3.org/1999/02/22-rdf-syntax-ns#"
   xmlns:svg="http://www.w3.org/2000/svg"
   xmlns="http://www.w3.org/2000/svg"
   xmlns:sodipodi="http://sodipodi.sourceforge.net/DTD/sodipodi-0.dtd"
   xmlns:inkscape="http://www.inkscape.org/namespaces/inkscape"
   width="75"
   height="75"
   id="svg3568"
   version="1.1"
   inkscape:version="0.48.4 r9939"
   viewBox="0 0 75 75"
   sodipodi:docname="New document 27">
  <defs
     id="defs3570" />
  <sodipodi:namedview
     id="base"
     pagecolor="#ffffff"
     bordercolor="#666666"
     borderopacity="1.0"
     inkscape:pageopacity="0.0"
     inkscape:pageshadow="2"
     inkscape:zoom="2.4375416"
     inkscape:cx="16.953464"
     inkscape:cy="42.114806"
     inkscape:document-units="px"
     inkscape:current-layer="layer1"
     showgrid="false"
     fit-margin-top="0"
     fit-margin-left="0"
     fit-margin-right="0"
     fit-margin-bottom="0"
     inkscape:window-width="467"
     inkscape:window-height="372"
     inkscape:window-x="0"
     inkscape:window-y="24"
     inkscape:window-maximized="0" />
  <metadata
     id="metadata3573">
    <rdf:RDF>
      <cc:Work
         rdf:about="">
        <dc:format>image/svg+xml</dc:format>
        <dc:type
           rdf:resource="http://purl.org/dc/dcmitype/StillImage" />
        <dc:title></dc:title>
      </cc:Work>
    </rdf:RDF>
  </metadata>
  <g
     inkscape:label="Layer 1"
     inkscape:groupmode="layer"
     id="layer1"
     transform="translate(-391.1563,-518.81881)">
    <path
       d="m 428.43101,569.43946 c 0.0657,0.37535 0.0882,0.81297 -0.42206,0.95135 -0.512,0.13665 -1.06551,0.0363 -2.07567,0.0986 -1.00843,0.0761 -0.74897,-0.69881 -0.73686,-1.18659 0.0156,-0.48779 1.09319,-0.27503 1.45124,-0.3373 1.74183,-0.35113 1.71935,0.0986 1.78335,0.47394 z m 0.50854,-2.17427 c -0.70919,0.11244 -3.28821,0.11244 -3.70681,0.23698 -0.51545,0.15048 -1.09491,0.42551 -1.41837,0.82508 -0.32173,0.38745 0.13146,1.92518 0.11589,2.41296 -0.0138,0.48605 0.17643,1.32497 1.58962,1.33708 1.41145,0 3.13945,-0.14876 3.56323,-0.21276 0.42724,-0.0744 0.74724,-0.76281 0.70573,-1.87502 -0.0415,-1.11221 -0.14011,-2.84886 -0.84929,-2.72432 z m -10.91457,4.22399 c -0.005,0.82508 -0.6694,0.65038 -1.6294,0.71265 -0.96346,0.0623 -0.72821,-0.8493 -0.79394,-1.52389 -0.064,-0.66248 0.65383,-0.44973 1.22118,-0.53794 0,0 0.30097,0.0363 0.72476,-0.0242 0.42724,-0.0761 0.48259,0.54832 0.4774,1.3734 z m 1.39762,0.20065 c -0.16087,-1.52562 0.0951,-2.88691 -0.87524,-3.16194 -0.97038,-0.27502 -2.14486,-0.0259 -2.14486,-0.0259 -0.89946,0.15049 -2.47697,0.038 -2.41124,1.28865 0.0657,1.24886 0.54314,3.2121 0.6867,3.48712 0.14184,0.26292 0.24562,0.58638 1.71935,0.38746 1.47545,-0.20065 2.0428,-0.30097 2.37491,-0.3494 0.33038,-0.064 0.80951,-0.0882 0.65038,-1.62594 z m 16.36493,3.56323 c -0.0536,0.55006 -0.0519,0.83719 -0.74033,0.79914 -0.68497,-0.0242 -1.15891,0.0502 -1.85253,-0.0242 -0.69535,-0.0744 -0.28541,-0.53795 -0.32519,-1.06378 -0.0415,-0.52411 0.78184,-0.22487 1.31459,-0.27503 1.29557,-0.1107 1.65708,0.0121 1.60346,0.56389 z m 0.3027,-2.23826 c -1.30075,0.0744 -1.92346,0.12454 -1.92346,0.12454 -0.83718,-0.0502 -2.47004,-0.21276 -2.75199,0.71265 -0.28194,0.9254 -0.18335,2.3628 -0.21448,2.76237 -0.0311,0.38746 0.53967,1.46335 1.8335,1.33708 1.29211,-0.11071 1.44259,-0.0986 2.24,0.0138 0.79567,0.11243 1.76605,0.0882 1.97534,-1.83697 0.20757,-1.93902 0.14184,-3.18789 -1.15891,-3.11351 z m 3.40756,-3.44907 c -0.47222,0.0744 -0.97038,0.0121 -1.93211,0.0865 -0.96172,0.0623 -0.56908,-0.48778 -0.57772,-0.82508 -0.009,-0.34941 0.58118,-0.0623 1.07934,-0.23697 1.42703,-0.48779 1.71243,0.0502 1.75222,0.28713 0.0398,0.23697 0.15221,0.61232 -0.32173,0.68843 z m 0.32518,-2.68799 c -1.4495,0.0502 -1.87675,0.12454 -2.43718,0.27502 -0.42897,0.10033 -1.86118,-0.0761 -1.90442,1.38724 -0.0432,1.46162 -0.11936,2.75026 0.80259,2.73643 0.92194,-0.0121 3.07545,0.064 3.79328,-0.0121 0.71784,-0.0744 1.18314,-0.48779 1.13989,-1.6 -0.0415,-1.11221 0.0571,-2.83675 -1.39416,-2.78659 z m -16.54136,10.09986 c -0.57426,0.0502 -0.47221,0.0744 -1.36994,0.22486 -0.89945,0.1626 -0.61578,-0.47394 -0.74378,-0.93751 -0.128,-0.46183 0.91157,-0.38745 1.36994,-0.52583 1.38897,-0.42379 1.57751,0.12627 1.65881,0.60021 0.0796,0.46357 -0.3373,0.58811 -0.91503,0.63827 z m 0.76627,-2.95091 c -1.3388,0.12627 -1.6467,0.32519 -1.6467,0.32519 -0.88216,0.25081 -2.84712,0.13838 -2.69491,1.3267 0.15222,1.1987 0.24908,2.04972 0.58119,2.58594 0.33384,0.52583 0.78357,0.88907 2.25729,0.38745 1.47373,-0.48778 3.40756,0.0121 3.2934,-1.23675 -0.11243,-1.23675 -0.448,-3.52518 -1.79027,-3.38853 z m 17.75044,-30.29959 c -0.40303,-0.36152 -1.09492,-0.15049 -1.27654,0.21275 -0.40129,0.80087 0.93406,1.78681 1.984,2.53751 1.05167,0.74897 0.75243,0.99978 1.01362,1.38724 0.26119,0.39957 1.27826,0.37535 1.52216,-0.21276 0.24216,-0.57427 0.0277,-1.26097 -0.65211,-1.82486 -0.67978,-0.57427 -2.1881,-1.72453 -2.59113,-2.09988 z m -3.03567,3.92474 c -0.8147,-0.49989 -1.22118,-0.22486 -1.37167,0.22487 -0.25946,0.77491 0.99632,1.30075 1.75567,1.75048 0.75762,0.44973 1.52389,1.53772 2.23481,1.42529 0.70745,-0.12454 0.4307,-1.20043 -0.0432,-1.70032 -0.47395,-0.49989 -1.76259,-1.21253 -2.57556,-1.70032 z m 17.17617,-11.81229 c -0.53448,0.576 -2.0774,2.09989 -1.76086,2.53751 0.31481,0.43762 1.03438,0.65037 0.71957,1.1001 -0.31481,0.43762 -1.03092,0.80087 -1.65189,1.4374 -0.6227,0.65038 -0.94443,1.33708 -1.63978,0.67633 -0.69535,-0.66422 -3.57188,-2.71394 -4.51977,-3.42659 -0.62789,-0.47394 -2.09989,-0.91156 -1.85599,-1.48756 0.24216,-0.57427 1.09664,-2.99935 1.60691,-4.59934 0.50854,-1.6 0.73513,-2.26248 1.24713,-2.112 0.51373,0.1626 1.54119,0.76108 1.76259,0.92541 0.21968,0.14875 0.64692,0.37362 0.26984,1.02399 -0.37708,0.65038 -1.3734,3.38681 -1.2454,3.86248 0.128,0.46357 0.42724,0.79913 0.96518,1.10011 0.53622,0.29924 1.14508,0.72475 1.44432,0.48778 0.29925,-0.25081 1.24195,-1.57578 2.34378,-2.83848 1.10184,-1.24886 1.32843,-1.92518 1.89751,-1.4374 0.56908,0.48778 0.9721,0.86313 1.17794,1.21254 0.20584,0.35113 -0.22659,0.96345 -0.76108,1.53772 z m -4.34853,9.68819 c -0.14875,0.8493 -0.92713,1.42529 -2.0601,2.78659 -1.13297,1.35091 -2.53923,3.38853 -2.87134,3.4508 -0.33211,0.0502 -3.60302,0.26119 -7.45166,-0.0502 -3.85209,-0.32519 -5.48496,-0.48778 -5.90355,-0.94962 0,0 -0.18335,-1.088 0.18681,-1.49967 0.37016,-0.4013 4.32604,-5.20128 5.59912,-6.87566 1.27481,-1.67437 3.80021,-4.30009 4.27415,-4.08734 0.47395,0.21276 4.13059,2.8627 5.71155,4.14961 1.58097,1.28692 2.66378,2.22443 2.51502,3.07545 z m -0.42551,10.7243 c 0.0588,1.49967 0.31654,4.18766 0.16951,5.62506 -0.14529,1.42529 -0.27502,3.25015 -2.16907,2.98724 -1.89405,-0.26119 -5.26355,-1.48584 -7.63847,-1.43741 -2.37318,0.0623 -3.39718,0.3373 -7.83219,0.31308 -4.42983,-0.038 -7.54679,-0.33729 -12.8778,0.66249 -5.32929,0.99978 -9.75219,1.6 -11.41619,1.82486 -1.66226,0.23697 -2.69664,0.46184 -3.11696,-0.58811 -0.42033,-1.04994 -1.41838,-3.49923 -1.41838,-3.49923 -0.42032,-1.04994 -2.44929,-4.69966 -1.39243,-5.07501 1.05687,-0.37535 4.21015,-0.99978 8.00171,-1.6 3.79329,-0.58811 9.26441,-1.02573 10.3057,-1.20043 1.0413,-0.1747 1.45989,0 1.45989,0 0,0 0.21449,4.14961 0.7507,4.73772 0.53968,0.5881 1.51697,0.91329 3.11005,0.83719 1.59307,-0.0744 3.98182,-0.0502 4.5042,-0.13665 0.51892,-0.0882 1.81967,-0.7386 1.78508,-2.09989 -0.0346,-1.35091 -0.31654,-3.88842 -0.0329,-3.93858 0.28367,-0.038 4.36236,0.48778 7.39111,0.56216 3.02875,0.064 5.35696,0.0138 7.24928,-0.0121 1.89232,-0.0242 3.10832,0.55005 3.16713,2.03761 z m -4.8242,15.22503 c -0.57081,2.67589 -1.53427,6.18723 -1.87675,7.61252 -0.34422,1.4253 -1.09146,1.88886 -2.06875,2.15005 -0.9773,0.26292 -2.46832,0.36325 -4.5734,0.28714 -2.1068,-0.0865 -7.19392,-0.24908 -10.89208,-0.24908 -3.70161,-0.0121 -9.81273,0.38746 -11.65834,0.41167 -1.84562,0.0138 -2.69491,-2.71221 -3.25188,-5.14939 -0.55871,-2.43718 -1.93903,-6.00042 -2.53924,-6.96214 -0.60195,-0.97557 -0.0727,-1.27654 0.35805,-1.32497 1.00151,-0.12627 7.52258,-1.27654 12.68581,-2.09989 5.16495,-0.82508 7.40668,-0.51373 9.17273,-0.42551 1.76778,0.0882 3.71545,0.38746 7.30463,0.32519 3.58745,-0.0761 6.49857,0.16259 7.50181,0.62443 1.00324,0.46356 0.40649,2.12583 -0.16259,4.79998 z m -27.87971,-20.14956 c -0.22659,0.66248 0.18335,0.78702 -0.95135,0.98767 -1.13643,0.18681 -1.56367,-0.61232 -1.54118,-1.35091 0.0208,-0.73687 0.74551,-1.33708 1.30594,-1.48757 0,0 0.38746,-0.0121 1.15892,0.2387 0.77318,0.26119 0.25427,0.93752 0.0277,1.61211 z m 1.88021,-2.12583 c -0.21275,-0.32519 0.87351,-0.87524 1.28346,-1.33708 0.40821,-0.44973 0.99805,-0.98767 1.07935,-0.52411 0.0796,0.47395 0.61751,4.52496 0.2387,4.58723 -0.37881,0.0623 -1.42702,0.18681 -1.80583,0.24908 -0.37881,0.0761 -1.49103,-0.1747 -1.14508,-0.43762 0.34594,-0.24908 0.74551,-1.92345 0.3494,-2.5375 z m -11.87629,-6.36193 c 1.52735,-1.61211 4.08561,-3.75005 8.01382,-3.25016 3.92993,0.4999 5.59912,2.59978 5.84301,2.90075 0.24562,0.29925 0.45664,2.41124 0.38573,2.8627 -0.0692,0.44973 -0.12454,0.69881 -0.41687,0.41167 -0.29405,-0.29924 -0.47394,-0.21275 -0.78875,0.22487 -0.31481,0.43762 -1.21254,1.17621 -1.72281,1.59999 -0.51373,0.43762 -0.85967,0.4013 -1.31805,0.27503 -0.45665,-0.11243 -0.67113,-0.512 -0.42032,-1.04994 0.25254,-0.52411 0.91675,-2.92497 1.12086,-3.44908 0.20238,-0.51372 0.39265,-1.13815 0.15395,-1.38896 -0.23698,-0.24909 -0.79741,-0.39957 -1.10357,-0.19892 -0.30789,0.19892 -0.71438,1.82486 -1.24713,3.57534 -0.53276,1.73664 -0.69535,2.49945 -0.89254,2.77448 -0.19546,0.27502 -0.29924,-0.0502 -0.83719,-0.93751 -0.53794,-0.87524 -2.08086,-2.80043 -2.54788,-3.5494 -0.46703,-0.7507 -1.01189,-0.80086 -1.48238,-0.43762 -0.47567,0.37362 -0.0467,0.88735 0.23006,1.3734 0.27848,0.48778 1.60691,2.60151 2.16907,3.33837 0.56043,0.72476 1.08281,1.22465 0.77492,1.42529 -0.30616,0.18681 -1.41319,-0.5881 -2.47005,-0.80086 -1.05686,-0.21275 -2.60496,-0.73686 -3.70161,-0.88735 -1.09491,-0.15048 -0.88908,0.20065 -1.06897,0.86314 -0.18162,0.66248 0.87697,0.87524 2.22443,1.08799 1.35091,0.21276 3.25188,0.81124 3.67047,0.98768 0.42033,0.16086 0.64865,0.37362 0.5933,0.62443 -0.0554,0.24908 -1.61556,0.51199 -2.06529,0.73686 -0.448,0.22486 0.0277,1.31286 0.0277,1.31286 l -3.4854,0.38746 c 0,0 0.0605,-1.07589 -0.256,-1.51178 -0.31654,-0.42551 -0.87697,-0.576 -1.76432,-2.37491 -0.88735,-1.80065 0.85621,-5.29988 2.38183,-6.92582 z m 15.73531,-3.62551 6.55393,-0.38745 0.67978,18.42503 -5.78939,0.30097 -1.44432,-18.33855 z m 34.3212,-5.07501 c -0.2214,-0.44973 -2.00129,-2.92496 -2.5548,-3.31242 -0.55178,-0.39957 -1.60692,0.85102 -2.28497,1.45124 -0.67632,0.59848 -2.53232,2.86269 -2.98896,3.03739 -0.45838,0.17471 1.37859,-3.92474 1.53426,-4.73771 0.15741,-0.80087 -2.16388,-1.86292 -3.88496,-2.26248 -1.72108,-0.38746 -1.81275,0.21275 -2.4268,1.18659 -0.61233,0.98767 -2.25729,6.22528 -2.25729,6.22528 -2.1293,0.0623 -3.65491,1.97534 -5.1961,3.8002 -1.54291,1.81276 -5.1269,7.67479 -5.1269,7.67479 0,0 -0.58292,-6.91198 -0.58638,-8.66246 -0.003,-1.74875 -1.44086,-2.1881 -2.60843,-2.1881 -1.16583,0.0138 -5.58355,0.36324 -6.81165,0.576 -1.23157,0.19892 -1.03784,1.92518 -1.03784,1.92518 -0.58464,-0.5881 -2.98377,-1.53772 -6.02982,-1.71243 -3.04432,-0.16259 -6.74766,1.53773 -8.35284,2.97513 -1.60692,1.4374 -4.07523,4.67545 -4.16345,8.1989 -0.0865,3.51307 2.52194,5.70117 2.52194,5.70117 -7.14376,0.91157 -5.16323,4.57512 -4.72042,5.76171 0.44454,1.18833 2.48907,5.2255 3.1948,7.10053 0.70573,1.87502 2.73989,1.52388 3.07199,1.47545 0.33038,-0.064 1.49276,4.79999 2.36973,8.55003 0.87524,3.75005 1.55675,5.47458 3.18442,6.46225 1.62767,0.99979 6.7442,0.17471 13.19607,0.0623 6.45188,-0.11243 12.54224,0.80087 15.89272,0.18682 3.35047,-0.61233 4.11501,-4.14962 4.87955,-7.97404 0.76454,-3.82615 1.6467,-8.41338 1.92173,-8.49987 0.27502,-0.10032 1.04129,0.11244 1.74356,-0.0502 0.70054,-0.1747 1.47199,-0.78875 2.00648,-2.23826 0.53275,-1.44951 0.13319,-6.68712 0.18335,-9.57576 0.0484,-2.8748 -2.62572,-3.43696 -3.31242,-3.47501 -0.6867,-0.0242 1.19524,-1.56195 3.1135,-4.02508 1.91827,-2.46139 0.28195,-4.37447 0.28195,-4.37447 0,0 0.17989,-0.37535 0.48778,-0.57427 0.30789,-0.20065 2.53578,-2.27459 3.61339,-3.08756 1.07935,-0.82508 0.17125,-1.58788 -0.33556,-1.98745 -0.50681,-0.39957 0.0605,-0.78703 0.88043,-1.71243 0.81643,-0.91329 0.82508,-1.44951 0.60194,-1.90097"
       style="fill:#231f20;fill-opacity:1;fill-rule:nonzero;stroke:none"
       id="path3042"
       inkscape:connector-curvature="0" />
  </g>
</svg>
