<?xml version="1.0" encoding="UTF-8" standalone="no"?>
<!-- Created with Inkscape (http://www.inkscape.org/) -->

<svg
   xmlns:dc="http://purl.org/dc/elements/1.1/"
   xmlns:cc="http://creativecommons.org/ns#"
   xmlns:rdf="http://www.w3.org/1999/02/22-rdf-syntax-ns#"
   xmlns:svg="http://www.w3.org/2000/svg"
   xmlns="http://www.w3.org/2000/svg"
   xmlns:sodipodi="http://sodipodi.sourceforge.net/DTD/sodipodi-0.dtd"
   xmlns:inkscape="http://www.inkscape.org/namespaces/inkscape"
   width="75"
   height="75"
   id="svg3568"
   version="1.1"
   inkscape:version="0.48.4 r9939"
   viewBox="0 0 75 75"
   sodipodi:docname="watermelon.svg">
  <defs
     id="defs3570" />
  <sodipodi:namedview
     id="base"
     pagecolor="#ffffff"
     bordercolor="#666666"
     borderopacity="1.0"
     inkscape:pageopacity="0.0"
     inkscape:pageshadow="2"
     inkscape:zoom="2.4375416"
     inkscape:cx="27.84641"
     inkscape:cy="39.673425"
     inkscape:document-units="px"
     inkscape:current-layer="layer1"
     showgrid="false"
     fit-margin-top="0"
     fit-margin-left="0"
     fit-margin-right="0"
     fit-margin-bottom="0"
     inkscape:window-width="467"
     inkscape:window-height="372"
     inkscape:window-x="152"
     inkscape:window-y="148"
     inkscape:window-maximized="0" />
  <metadata
     id="metadata3573">
    <rdf:RDF>
      <cc:Work
         rdf:about="">
        <dc:format>image/svg+xml</dc:format>
        <dc:type
           rdf:resource="http://purl.org/dc/dcmitype/StillImage" />
        <dc:title></dc:title>
      </cc:Work>
    </rdf:RDF>
  </metadata>
  <g
     inkscape:label="Layer 1"
     inkscape:groupmode="layer"
     id="layer1"
     transform="translate(-391.1563,-518.81881)">
    <path
       d="m 420.10182,562.21104 c 0.41687,-0.47395 -0.41686,-1.04994 -0.72994,-1.20043 -1.02573,-0.512 -1.66573,0.72648 -0.78011,1.45124 0.88562,0.73686 1.09319,0.21103 1.51005,-0.25081 z m -4.32431,3.75004 c 1.09492,0.36325 1.98054,0.0502 2.08432,-0.5241 0.10378,-0.576 -0.25946,-1.46335 -1.19697,-1.46335 -0.78357,0 -1.98053,1.6121 -0.88735,1.98745 z m -6.35328,-0.88735 c 0.41687,-0.36324 0.15741,-1.56194 -0.9894,-1.6121 -0.67805,-0.038 -1.30075,1.03611 -0.67632,1.6121 0.62443,0.57427 1.25059,0.36325 1.66572,0 z m -4.58377,-4.90031 c 1.14681,0.78703 1.45989,0.31308 1.82486,-0.62443 0.36324,-0.93751 0.41513,-1.20043 -0.41859,-1.51351 -0.64173,-0.23697 -2.55135,1.36303 -1.40627,2.13794 z m 5.88626,-1.30075 c 0.52064,1.15027 1.14507,1.35091 1.92691,0.62616 0.78183,-0.72475 0.83373,-1.56194 0.0519,-2.1881 -0.69189,-0.55005 -2.49946,0.4134 -1.97881,1.56194 z m 9.3751,-2.49945 c 0.62616,-0.31135 1.14508,-1.51178 -0.36497,-1.7747 -0.67459,-0.11243 -1.87502,0.62443 -1.45816,1.51351 0.41687,0.88562 1.1987,0.57427 1.82313,0.26119 z m -9.68646,-2.44929 c 0.57081,-0.46184 0.57081,-1.87503 -0.93751,-2.33686 -0.96691,-0.30097 -2.50118,0.87351 -1.56367,2.1241 0.93751,1.25059 1.92692,0.6867 2.50118,0.21276 z m 5.62507,-1.03784 c 0.98767,-0.73686 0.93751,-1.98745 -0.31308,-2.03761 -0.42032,-0.0121 -1.98054,0.98767 -1.56194,1.72453 0.41513,0.72476 0.88389,1.03784 1.87502,0.31308 z m 8.33208,-1.67437 c 0.41687,-0.25081 0.46876,-1.664 -0.52064,-1.81275 -0.72303,-0.12627 -2.34378,0.67459 -1.66746,1.66226 0.67805,0.98767 1.77124,0.41168 2.1881,0.15049 z m 10.78138,10.42505 c -0.88562,0.0502 -2.1881,1.51178 -1.45816,2.07394 0.72822,0.576 1.35438,0.11416 1.87503,-0.41167 0.52064,-0.52411 0.36324,-1.71243 -0.41687,-1.66227 z m 6.2495,-0.98767 c -0.73168,0.20065 -1.14508,1.34918 -0.36325,1.87502 0.78184,0.512 1.66573,0.56216 1.97881,-0.42551 0.31135,-0.98768 -0.46876,-1.76259 -1.61556,-1.44951 z m -4.27069,-3.49924 c -0.42898,-0.11416 -1.40454,0.16087 -0.98941,1.09838 0.41687,0.93751 0.88562,1.25059 1.45989,0.83892 0.57081,-0.42552 0.25946,-1.72627 -0.47048,-1.9373 z m 6.66636,-1.87502 c -0.72822,-0.0519 -1.09319,0 -1.66573,1.04821 -0.57427,1.03784 0.62443,1.13816 1.30075,1.30076 0.67806,0.15048 1.2506,-0.67459 1.2506,-1.10011 0,-0.41167 -0.20757,-1.18659 -0.88562,-1.24886 z m -7.44647,0.0623 c 1.0413,-0.11416 1.51005,-1.72626 0.0519,-2.13794 -0.90292,-0.26292 -1.82313,0.57427 -1.77124,1.44951 0.0519,0.88735 0.67632,0.78703 1.71935,0.68843 z m 15.51909,-8.38916 c -0.39264,-0.14876 -1.04129,-0.57427 -0.41513,-1.1987 0.62443,-0.62616 3.48885,-3.38853 2.91459,-4.11329 -0.57081,-0.73686 -2.65513,-1.98745 -2.23827,-3.91264 0.41686,-1.92518 1.45816,-3.12561 2.44756,-2.64994 0.99113,0.46357 0.0536,1.66227 0.62443,2.33859 0.57427,0.67459 1.25059,0.52411 2.03243,-0.15048 0.78184,-0.6746 2.23999,-2.23827 3.54075,-2.08778 1.30248,0.16259 2.03242,1.29902 0.67805,2.03761 -1.35438,0.72476 -2.13448,2.23654 -0.93751,2.33686 1.19697,0.10033 1.92691,-0.0502 2.70875,0.576 0.78183,0.62443 1.09318,2.18637 -0.78184,2.76237 -1.87502,0.57427 -4.27069,-0.31308 -5.26009,0.0502 -0.9894,0.36151 -2.34378,1.6121 -2.96994,2.39913 -0.62443,0.77492 -1.76951,1.81275 -2.34378,1.6121 z m -0.31135,10.00127 c -2.65685,2.81253 -7.65749,6.97425 -9.27132,8.12451 -1.61384,1.13816 -2.34378,1.45124 -2.55135,2.02551 -0.20929,0.57427 -0.1574,0.78703 -0.99113,0.93751 -0.832,0.1626 -4.58204,0.1626 -5.93642,0.1626 -1.35437,0 -2.03069,0.67459 -1.35437,0 0.67805,-0.67633 1.66572,-1.77643 1.40627,-1.98746 -0.25946,-0.20064 -3.49059,1.98746 -3.95762,1.7747 -0.46875,-0.21276 -1.71934,-0.88735 -0.26118,-2.08778 1.45988,-1.18832 3.38507,-2.28669 3.1775,-2.64994 -0.2093,-0.36324 -4.37447,2.81254 -4.58377,2.39913 -0.20757,-0.42378 -0.62443,-1.24886 0,-2.08605 0.62443,-0.83718 4.68755,-4.42636 4.37447,-4.78787 -0.31135,-0.37535 -2.55134,1.34918 -3.59263,2.43718 -1.0413,1.1001 -1.71935,2.1881 -1.71935,1.25059 0,-0.93751 0.26119,-1.87502 1.14681,-2.8627 0.88389,-0.98767 1.9788,-1.97534 1.7695,-2.23826 -0.20756,-0.26292 -0.72821,-0.0502 -0.72821,-0.0502 -0.41686,0.4134 -0.78184,1.088 -1.14681,0.98767 -0.36324,-0.10032 0.10552,-1.46161 1.92865,-3.8002 1.8214,-2.34897 4.73944,-4.53707 8.43587,-5.88626 3.69815,-1.35091 8.33381,-1.08799 10.4164,-1.08799 2.08432,0 4.37447,2.49945 4.68755,4.11155 0.31308,1.61384 1.40627,2.50118 -1.24886,5.31372 z m -0.72994,8.75067 c 0.93751,1.82313 -0.67632,1.76086 -1.8214,1.76086 -1.14681,0 -5.20993,0.1626 -5.83436,0.26292 -0.62444,0.11243 2.23999,-2.38702 3.1775,-3.07372 0,0 0.57254,-0.15221 1.40627,-1.13816 0.83199,-0.98767 2.13448,0.36151 3.07199,2.1881 z m 10.72948,4.11156 c 1.25059,-0.10032 0.72995,1.87502 0.72995,2.76237 0,0.88735 -1.04303,0.67459 -3.69816,0.62443 -2.65685,-0.0484 -6.1976,-0.47394 -8.07262,0.15049 -1.87502,0.62616 -5.31372,0.5241 -9.79198,0.47567 -4.47998,-0.0502 -10.31262,0.82508 -13.23066,1.20043 -2.91632,0.36151 -6.0402,-0.68843 -8.2283,-0.83892 -2.18811,-0.16259 -5.72885,-0.16259 -7.91523,0.10033 -2.1881,0.26292 -5.41749,0.57427 -8.33381,0.31308 -2.91805,-0.26292 -7.13512,-0.10032 -8.17814,-0.0502 -1.04129,0.0502 -1.1987,-1.7747 -1.09319,-3.07545 0.10379,-1.29903 0.93752,-1.088 2.24,-0.98768 1.30248,0.10033 3.23631,0.39957 5.2082,0.576 1.19697,0.0986 3.90572,-0.31308 5.98831,-0.36324 2.08432,-0.0502 4.32431,0.15049 6.82376,0.15049 2.50118,0 4.79134,-0.10033 9.01014,-0.51373 4.2188,-0.42378 10.10332,-0.11071 13.02137,-0.11071 2.91632,0 8.75068,-0.51372 13.90699,-0.62615 5.15631,-0.10033 10.36278,0.31308 11.61337,0.21275 z m -60.20826,-15.16277 c 4.27069,-4.73771 9.32321,-6.61274 14.68882,-7.65057 5.36215,-1.03611 12.03024,-0.31135 13.95715,0.52583 1.92691,0.82508 3.07372,0.77492 1.87502,1.66227 -1.1987,0.88735 -5.98831,5.88798 -6.77014,8.58808 -0.78184,2.71221 -1.66746,6.51242 -0.52238,7.87371 1.14681,1.35092 2.03243,2.02551 1.14681,2.28843 -0.88562,0.26292 -9.48062,0.46184 -9.48062,0.46184 -2.65513,0.11243 -11.04084,0.31308 -12.91586,-0.82335 -1.87502,-1.152 -6.2495,-8.17641 -1.9788,-12.92624 z m 55.80784,-9.54981 c 1.79546,0.15049 3.82788,1.56194 7.26485,-1.25059 3.43869,-2.81253 0,-5.54896 -0.46876,-5.78766 -0.46875,-0.22487 -0.38919,-1.16238 0.15741,-1.87502 0.54659,-0.69881 1.24886,-1.63632 -1.32843,-2.88691 -2.57902,-1.2506 -5.78074,1.1001 -5.78074,1.1001 -0.93751,-1.65016 -3.67394,-2.42507 -6.01599,0.15049 -2.34377,2.57383 -0.39091,6.32387 0.62443,7.187 1.01708,0.86141 -2.34377,3.36259 -2.81253,3.67567 -0.46875,0.31135 -3.12561,-0.70054 -7.10917,-0.31308 -3.98528,0.38746 -6.24949,2.1881 -6.24949,2.1881 -2.18811,-1.63805 -5.00064,-2.97513 -10.15695,-3.28821 -5.15631,-0.31308 -9.37338,-0.31308 -15.46893,1.96324 -6.09382,2.26075 -11.17229,6.63696 -12.49899,13.27391 -1.32843,6.63869 3.5148,9.13814 4.13923,9.76257 0.62616,0.62616 0,0 -1.95286,-0.14876 -1.95286,-0.16259 -3.90572,-0.2387 -6.2495,-0.2387 -2.34377,0 -1.01535,3.36259 -1.01535,4.92453 0,0 0.46876,1.48929 0.46876,2.64994 0,1.17621 16.1712,0.40129 26.48382,0 10.31262,-0.38573 36.87601,-0.77492 41.87491,-0.69881 5.00064,0.0744 3.75005,-4.45058 3.67221,-6.4882 -0.0778,-2.02378 -2.65686,-1.63805 -4.92107,-1.47546 -2.26594,0.15049 -5.86031,-0.16259 -6.32906,-0.16259 -0.46876,0 -0.62443,-0.38573 -0.78184,-2.26075 -0.15568,-1.87502 -2.0307,-3.28821 -2.26421,-3.28821 -0.23524,0 1.71935,-2.49945 4.2188,-5.46247 2.49945,-2.97513 -0.15568,-7.18701 -0.93751,-7.57619 -0.78184,-0.39957 0,-0.78703 0.46875,-1.41146 0.46876,-0.62443 1.17103,-2.42507 2.96821,-2.26248"
       style="fill:#231f20;fill-opacity:1;fill-rule:nonzero;stroke:none"
       id="path3064"
       inkscape:connector-curvature="0" />
  </g>
</svg>
