<?xml version="1.0" encoding="UTF-8" standalone="no"?>
<!-- Created with Inkscape (http://www.inkscape.org/) -->

<svg
   xmlns:dc="http://purl.org/dc/elements/1.1/"
   xmlns:cc="http://creativecommons.org/ns#"
   xmlns:rdf="http://www.w3.org/1999/02/22-rdf-syntax-ns#"
   xmlns:svg="http://www.w3.org/2000/svg"
   xmlns="http://www.w3.org/2000/svg"
   xmlns:sodipodi="http://sodipodi.sourceforge.net/DTD/sodipodi-0.dtd"
   xmlns:inkscape="http://www.inkscape.org/namespaces/inkscape"
   width="75"
   height="75"
   id="svg3568"
   version="1.1"
   inkscape:version="0.48.4 r9939"
   viewBox="0 0 75 75"
   sodipodi:docname="shop.svg">
  <defs
     id="defs3570" />
  <sodipodi:namedview
     id="base"
     pagecolor="#ffffff"
     bordercolor="#666666"
     borderopacity="1.0"
     inkscape:pageopacity="0.0"
     inkscape:pageshadow="2"
     inkscape:zoom="2.4375416"
     inkscape:cx="16.953464"
     inkscape:cy="42.114806"
     inkscape:document-units="px"
     inkscape:current-layer="layer1"
     showgrid="false"
     fit-margin-top="0"
     fit-margin-left="0"
     fit-margin-right="0"
     fit-margin-bottom="0"
     inkscape:window-width="467"
     inkscape:window-height="372"
     inkscape:window-x="0"
     inkscape:window-y="24"
     inkscape:window-maximized="0" />
  <metadata
     id="metadata3573">
    <rdf:RDF>
      <cc:Work
         rdf:about="">
        <dc:format>image/svg+xml</dc:format>
        <dc:type
           rdf:resource="http://purl.org/dc/dcmitype/StillImage" />
        <dc:title></dc:title>
      </cc:Work>
    </rdf:RDF>
  </metadata>
  <g
     inkscape:label="Layer 1"
     inkscape:groupmode="layer"
     id="layer1"
     transform="translate(-391.1563,-518.81881)">
    <path
       d="m 410.96131,566.92244 c 1.24886,0.31135 1.56194,-0.78703 1.56194,-1.80065 0,-1.01189 1.09319,-5.69944 2.7347,-7.81143 1.63978,-2.11373 5.85858,-4.21361 7.57792,-4.76367 1.71935,-0.55005 2.89037,0.15049 3.75005,-0.70054 0.85794,-0.8614 -0.78184,-2.34896 -3.75005,-1.87502 -2.9682,0.46357 -6.16128,2.26248 -8.51716,4.83804 -1.63978,1.80065 -2.73297,3.51307 -3.5148,6.25123 -0.78011,2.73642 -1.09319,5.54896 0.1574,5.86204 z m 48.04484,10.70008 c -0.15567,0.78702 -5.62333,0.62443 -14.06266,0.93751 -8.43587,0.31135 -20.54568,0.23697 -27.65484,0.69881 -7.10917,0.47567 -16.63996,0.93751 -18.04623,1.02572 -1.40626,0.0744 -1.01707,-1.65016 -0.93751,-3.0495 0.0778,-1.41319 1.71762,-0.70054 2.49946,-0.70054 1.40626,0 19.92124,-1.41319 31.09353,-2.03762 11.17057,-0.62443 24.76448,-0.77491 26.25031,-0.77491 1.4841,0 1.01535,3.12561 0.85794,3.90053 z M 404.9436,563.09629 c 1.33016,-4.68756 7.26657,-12.11154 10.07911,-14.61272 2.81253,-2.49945 7.65749,-5.07501 12.1098,-5.78593 4.45231,-0.70054 15.00018,-0.62616 19.14114,5.08712 4.13923,5.69944 6.01425,9.68646 6.56257,13.27564 0.5466,3.59783 0.15568,8.51198 0.15568,9.53597 0,1.01362 0.23351,1.32497 -0.85967,1.47546 -1.09492,0.16259 -14.8445,-0.31308 -22.5781,0.39956 -7.73534,0.70054 -18.82806,1.63805 -19.76557,1.63805 -1.72108,0 -4.14096,-0.23697 -4.68756,-1.01188 -0.54659,-0.78876 -1.4841,-5.31372 -0.1574,-10.00127 z m 19.68773,-26.79863 c -1.95113,0.0744 -1.3267,-1.17622 -1.3267,-2.03935 0,-0.8493 2.57729,-0.53621 4.60799,-0.62443 0,0 2.42334,-0.0744 3.90744,-0.0744 1.48411,0 1.79719,0.62443 1.56195,1.79892 -0.23352,1.17621 -0.62443,0.86313 -3.28129,0.86313 -2.65686,0 -3.5148,0 -5.46939,0.0761 z m 36.40725,35.86065 c 0,-1.24886 -4.29664,-0.54832 -5.07674,-0.54832 -0.78184,0 -0.47049,-7.50009 -1.71935,-13.91391 -1.25059,-6.39998 -7.42398,-13.66136 -11.40754,-15.53639 -3.98355,-1.87502 -8.51543,-1.72626 -9.76602,-1.87502 -1.24887,-0.16259 -0.78011,-1.17621 -0.78011,-1.65016 0,-0.46183 1.40627,-0.62616 2.57902,-0.62616 1.17102,0 0.78011,-4.13577 0.78011,-5.53685 0,-1.41318 -1.17276,-1.56194 -2.34378,-1.56194 -1.17275,0 -8.74895,0.38746 -10.62397,0.53795 -1.87502,0.16086 -1.32843,3.43696 -1.32843,5.08712 0,1.63805 2.0307,1.9494 3.20345,1.87502 1.17102,-0.0882 1.01362,1.32497 1.01362,2.18637 0,0.85103 -1.71762,1.25059 -3.43696,1.71243 -1.71935,0.47567 -4.79134,1.63805 -7.50009,3.72583 -2.70702,2.08778 -9.16582,9.27478 -11.4577,16.25076 -2.29189,6.97426 0.10378,12.18592 0.10378,12.18592 0,0 -4.97296,0.0259 -6.30312,0.10032 -1.32669,0.0882 -0.7801,5.71328 -0.62443,7.11263 0.15741,1.41319 11.09446,0.23697 26.56339,-0.55005 15.46893,-0.77492 33.82823,-0.69881 35.93677,-0.8493 2.11026,-0.16259 2.1881,-1.72453 2.26594,-3.12561 0.0778,-1.41146 -0.0778,-3.75004 -0.0778,-5.00064"
       style="fill:#231f20;fill-opacity:1;fill-rule:nonzero;stroke:none"
       id="path3066"
       inkscape:connector-curvature="0" />
  </g>
</svg>
