<?xml version="1.0" encoding="UTF-8" standalone="no"?>
<!-- Created with Inkscape (http://www.inkscape.org/) -->

<svg
   xmlns:dc="http://purl.org/dc/elements/1.1/"
   xmlns:cc="http://creativecommons.org/ns#"
   xmlns:rdf="http://www.w3.org/1999/02/22-rdf-syntax-ns#"
   xmlns:svg="http://www.w3.org/2000/svg"
   xmlns="http://www.w3.org/2000/svg"
   xmlns:sodipodi="http://sodipodi.sourceforge.net/DTD/sodipodi-0.dtd"
   xmlns:inkscape="http://www.inkscape.org/namespaces/inkscape"
   width="75"
   height="75"
   id="svg3568"
   version="1.1"
   inkscape:version="0.48.4 r9939"
   viewBox="0 0 75 75"
   sodipodi:docname="fridge.svg">
  <defs
     id="defs3570" />
  <sodipodi:namedview
     id="base"
     pagecolor="#ffffff"
     bordercolor="#666666"
     borderopacity="1.0"
     inkscape:pageopacity="0.0"
     inkscape:pageshadow="2"
     inkscape:zoom="2.4375416"
     inkscape:cx="16.953464"
     inkscape:cy="42.114806"
     inkscape:document-units="px"
     inkscape:current-layer="layer1"
     showgrid="false"
     fit-margin-top="0"
     fit-margin-left="0"
     fit-margin-right="0"
     fit-margin-bottom="0"
     inkscape:window-width="467"
     inkscape:window-height="372"
     inkscape:window-x="0"
     inkscape:window-y="24"
     inkscape:window-maximized="0" />
  <metadata
     id="metadata3573">
    <rdf:RDF>
      <cc:Work
         rdf:about="">
        <dc:format>image/svg+xml</dc:format>
        <dc:type
           rdf:resource="http://purl.org/dc/dcmitype/StillImage" />
        <dc:title></dc:title>
      </cc:Work>
    </rdf:RDF>
  </metadata>
  <g
     inkscape:label="Layer 1"
     inkscape:groupmode="layer"
     id="layer1"
     transform="translate(-391.1563,-518.81881)">
    <path
       d="m 439.51367,536.67252 c -0.36359,0.0502 -0.67633,-0.26119 -0.67633,-0.512 0,-0.26292 0.10534,-0.44973 0.36342,-0.47394 0.57444,-0.0502 0.67771,0.93578 0.31291,0.98594 z m -1.30127,-2.33686 c -0.99736,0.28714 -3.28112,1.03784 -2.50015,1.76259 0.78114,0.73859 0.93786,0.47568 0.98854,1.31286 0.0528,0.82508 -0.36342,2.7001 0.31291,2.75026 0.6777,0.0623 1.45867,-0.10032 1.40609,-1.13815 -0.0514,-1.04995 -0.0514,-1.51178 0.26136,-1.30076 0.31222,0.20065 1.66624,0.56389 2.29137,-0.62443 0.62495,-1.20043 -0.0528,-3.54939 -2.76012,-2.76237 z m -5.83385,4.16172 c -0.67701,0 -1.04181,-0.57427 -0.83303,-1.08627 0.20808,-0.52583 0.42361,-0.71264 0.93716,-0.62443 0.62495,0.0986 0.83373,0.56216 0.78097,0.93578 -0.0514,0.36324 -0.20808,0.77492 -0.8851,0.77492 z m 0.15602,-3.3868 c -0.93111,-0.11243 -2.135,0.47567 -2.49997,1.6761 -0.36411,1.18659 0.36497,2.2867 1.66694,2.7001 1.30196,0.42378 2.29188,-0.46356 2.70805,-1.66399 0.41618,-1.20043 -0.10343,-2.49946 -1.87502,-2.71221 z m -9.47889,-0.19892 c -0.67978,0.0744 -0.67719,0.72475 -0.52099,1.92518 0.15671,1.1987 0.3648,2.02378 0.3648,2.86097 0,0.83892 0.0521,0.93751 0.67701,0.93751 0.62512,0 0.8851,-0.31135 0.93716,-1.03784 0.0528,-0.73686 -0.10395,-0.93578 0.41687,-1.14853 0.52099,-0.21276 1.82296,-0.83719 1.82296,-0.41341 0,0.41341 -0.15603,0.93751 -0.0519,1.66227 0.10395,0.72475 -0.0521,1.61383 0.52082,1.61383 0.57305,0 1.14594,-0.10032 1.04129,-2.13794 -0.10413,-2.02551 0.46893,-4.32604 -0.36428,-4.42636 -0.83304,-0.0986 -1.2499,0.16432 -1.09388,0.93924 0.1562,0.78702 0.31291,0.93578 -0.41686,0.93578 -0.72908,0 -1.87502,0.16432 -2.03105,0.16432 -0.15602,0 -0.36428,-0.576 -0.36428,-0.88908 0,-0.31135 -0.10464,-1.1001 -0.93768,-0.98594 z m -3.38525,1.24886 c -0.28505,-0.11243 -0.46892,0.512 0.521,0.56216 0.98923,0.064 1.82226,0.11416 1.2499,1.25059 -0.57289,1.15027 -0.83373,2.71221 -1.87485,3.18789 -1.04199,0.46183 -1.719,0.20064 -2.49997,-0.7386 -0.78184,-0.93578 -0.46893,-1.39934 0.25997,-1.34918 0.72908,0.0502 0.41635,0.88735 1.14595,0.83718 0.72908,-0.0623 0.98923,-0.62443 1.25007,-1.15026 0.26015,-0.52411 0.5203,-1.46162 -0.46893,-0.98768 -0.98992,0.46357 -2.08311,0.10033 -2.39601,-0.88734 -0.31205,-0.98768 0.88527,-2.08778 1.82313,-2.39913 0.93716,-0.31308 3.02079,0.0502 2.65599,1.1001 -0.36411,1.03611 -0.67702,0.93751 -1.66625,0.57427 z m 29.79192,20.77573 c 0,0.23697 -0.39126,-0.38746 -0.70348,-0.93751 -0.31273,-0.55006 -1.09387,-0.93751 -2.57763,-1.25059 -1.48514,-0.31135 -2.81288,1.25059 -3.28112,1.41318 -0.46893,0.14876 -1.64116,-0.93751 -2.73504,-1.65016 -1.09405,-0.70053 -3.12509,0.0865 -3.43783,-0.0744 -0.31221,-0.15048 -0.15619,-1.01362 -0.23386,-1.80064 -0.0784,-0.77492 0.62495,-3.90053 0.62495,-3.90053 1.09406,-0.0744 5.00012,-0.31308 5.39052,-0.31308 0.39126,0 -0.62495,1.17621 -0.70262,2.50118 -0.079,1.32497 -0.079,3.67394 1.01483,3.82442 1.09388,0.1626 0.31291,-2.18637 0.46893,-3.67566 0.15602,-1.47373 1.32843,-2.72432 1.32843,-2.72432 0,0 3.59385,-0.0865 4.06278,-0.0865 0.46893,0 0.70261,0.93578 0.85881,3.12388 0.15602,2.18811 -0.0777,5.31199 -0.0777,5.55069 z m -3.67238,4.53707 c -0.23368,3.19999 -0.54659,6.01252 -0.70261,9.28689 -0.15619,3.28821 0,5.86377 0,6.56431 0,0.71091 -0.46893,1.33707 -0.86019,0.93578 -0.38988,-0.38573 -0.5459,-2.64994 -0.5459,-7.09879 0,-4.46269 0.78097,-8.75068 -1.01622,-8.83717 -1.79666,-0.0761 -3.90606,-0.22659 -5.38982,-0.46356 -1.48514,-0.23698 -3.36016,-0.31136 -3.43783,0.77491 -0.0785,1.10011 -0.39126,5.78766 -0.39126,5.78766 0,0 -6.79661,-0.86313 -11.24996,-0.70054 -4.45335,0.15049 -8.12504,0.77492 -7.96902,-0.54832 0.15689,-1.3267 -0.15602,-3.75004 -0.15602,-3.75004 -0.15602,-3.67567 -0.78114,-6.41382 -0.0784,-5.86377 0.7033,0.55005 2.26628,1.9494 3.20345,1.41318 0.93768,-0.55005 2.34377,-2.58766 2.9689,-2.42507 0.62495,0.14876 2.73435,2.42507 3.74987,2.33686 1.01552,-0.0744 2.65616,-1.088 3.43713,-1.63805 0.78184,-0.55005 2.26629,-1.56194 3.9846,-0.31135 1.71883,1.24886 1.40661,2.88691 2.8134,2.42507 1.40609,-0.47567 3.04604,-2.88864 4.99994,-2.57556 1.95217,0.31308 1.95217,1.9494 2.18724,2.41297 0.23368,0.47394 1.01483,1.17448 1.5628,0.62443 0.5459,-0.53795 2.2649,-2.41297 2.65617,-2.41297 0.38971,0 0.46875,0.85103 0.23368,4.06313 z m -3.35878,16.7126 c -0.079,1.32497 -1.79718,0.31308 -3.6722,0.55005 -1.87502,0.23697 -4.21897,0.15049 -4.21897,0.15049 -0.5466,-0.38746 0.39126,-4.91242 0.39126,-6.0869 0,-1.17622 0.38988,-6.41382 0.38988,-7.88928 0,-1.48583 0.93786,-0.93751 1.56281,-0.93751 0.62495,0 3.43713,0.46357 4.60937,0.62616 1.17171,0.14876 0.62512,3.58745 0.78183,7.26139 0.15602,3.67566 0.23369,5.00063 0.15602,6.3256 z m -9.29727,0.55005 c -0.46893,0.0744 -1.71883,0.0744 -2.65668,0 -0.93717,-0.0744 -2.10888,0.55005 -2.18724,-1.48756 -0.0784,-2.02551 0.46893,-4.1375 0.70348,-4.76193 0.23369,-0.62616 0.3904,-2.3507 0.3904,-2.3507 0.31221,0 1.40609,0.16259 1.40609,0.16259 0,0 0.31222,0.93751 0.23455,2.50119 -0.0784,1.56194 -0.23455,3.36085 0.23438,3.82442 0.46824,0.47394 1.01552,1.1001 1.01552,-0.77492 0,-1.87502 -0.15602,-5.47631 0.0778,-5.47631 0.23438,0 0.93769,-0.15048 0.93769,0.2387 0,0.38746 -0.15602,4.3001 -0.15602,5.62507 0,1.32497 0.46823,2.42507 0,2.49945 z m -5.46887,-0.31308 c 0,0 -1.87502,0.55005 -1.79666,-1.9494 0.0777,-2.49945 0.54659,-6.41209 0.54659,-6.41209 l 1.40609,0.16087 c 0,0 -0.23438,4.13923 -0.31204,4.91414 -0.0785,0.78703 0.15602,3.28648 0.15602,3.28648 z m -5.15614,-1.17448 c 0,-0.38746 0,-3.19999 0.23455,-4.06313 0.23369,-0.8614 0.70262,-3.43696 0.70262,-3.43696 0.23455,0 1.25007,0.23697 1.25007,0.23697 0,0 0.0784,1.40108 0,2.64994 -0.0777,1.25059 0.15602,5.16323 0.15602,5.16323 0,0 -2.34326,-0.16259 -2.34326,-0.55005 z m -1.09387,0.0761 c -0.70331,0 -1.79719,-0.0761 -1.64048,-1.40108 0.15603,-1.32497 0.31205,-3.51307 0.39058,-4.06312 0.0777,-0.55005 0.15602,-2.18637 0.15602,-2.18637 0.46893,0 1.32843,-0.0761 1.32843,0.23697 l 0,4.83631 c 0,1.10183 0.46892,2.57729 -0.23455,2.57729 z m -2.34395,0.0865 c 0,0 -2.34378,0.22486 -3.12493,0 -0.78114,-0.23697 -2.1094,0.15048 -1.87502,-1.25059 0.23455,-1.41319 0.39057,-5.86204 0.31291,-6.33599 -0.0386,-0.22659 1.71814,0 1.71814,0 0,0 0.39057,2.89902 0.39057,3.91091 0,1.01189 -0.15602,2.57556 0.3129,2.57556 0.46893,0 0.70331,-2.33686 0.70331,-3.27437 0,-0.93924 0.39057,-3.2882 0.39057,-3.2882 l 1.01552,0.23697 c 0,0 0.15603,2.73815 0.15603,4.06312 0,1.32497 0,3.36259 0,3.36259 z m -10.46882,-20.31217 c -0.8595,0.53795 -0.8595,-0.71264 -0.78114,-1.25059 0.0784,-0.55005 -0.15602,-4.37447 -0.23438,-5.62506 -0.0777,-1.2506 0.62495,-0.93752 1.17223,-0.93752 l 3.90607,0 c 0,0 -1.2499,3.75005 -0.23438,4.60107 1.01552,0.86141 1.09388,-1.1641 1.09388,-1.95113 0,-0.77491 0.54659,-3.12388 0.54659,-3.12388 l 6.7973,0 c 0,0 0.15602,4.68582 0.0777,5.07501 -0.0777,0.39957 0,0 -1.17154,0.0865 -1.17241,0.0744 -2.18793,2.26248 -2.9689,2.26248 -0.78114,0 -1.79667,-1.41318 -3.90607,-1.41318 -2.10957,0 -3.43782,1.72626 -4.29732,2.27632 z m 19.76609,-3.36258 c 0,0 -1.17224,0.62443 -2.1094,0.93751 -0.93786,0.31135 -1.09388,1.17448 -1.87502,1.32497 -0.78167,0.16259 -0.8595,0 -1.09388,-0.46357 -0.23438,-0.47394 -1.48445,-1.56194 -1.48445,-1.56194 l 0.54659,-5.23761 5.23449,0.15049 0.78167,4.85015 z m 7.73377,1.24886 c 0,0 -1.09319,0.70054 -1.79597,1.088 -0.704,0.39956 -0.39109,-0.62444 -1.71952,-1.39935 -1.32774,-0.78703 -3.5155,-1.01362 -3.5155,-1.01362 l 0,-4.84842 6.40604,-0.0761 c 0,0 -0.23386,2.02551 -0.23386,3.2761 0,1.24886 0.85881,2.9734 0.85881,2.9734 z m -22.42156,-9.99954 c 0.93717,-0.23697 6.40604,-0.1626 10.85956,-0.1626 4.45335,0 9.61001,-0.46183 13.20334,-0.77491 3.59385,-0.31135 5.31267,-0.23698 6.71877,-0.1626 1.40609,0.0882 2.2649,1.96324 2.65616,2.50119 0.39058,0.55005 -4.37499,0.31135 -7.57844,0.47394 -3.20259,0.15049 -9.45329,0.15049 -14.53107,0.0761 -5.0783,-0.0761 -12.49986,0 -13.59374,0.0744 -1.09405,0.0865 1.08921,-1.73837 2.26542,-2.02551 z m 1.40609,-11.09965 c 3.04726,-0.22486 9.14056,-0.46356 15.23438,-0.77491 6.094,-0.31308 11.4852,0.23697 13.20403,0.70053 1.71831,0.47395 1.71831,0.86141 1.71831,2.03589 0,1.16411 0.62495,5.70117 -0.31221,5.70117 -0.93786,0 -1.79719,-0.16259 -4.84393,0 -3.04725,0.14876 -5.70325,0.86314 -10.54717,0.62444 -3.04466,-0.15049 -8.04668,0.15048 -10.78103,0.2387 -2.73452,0.0744 -5.31285,1.32497 -5.3912,-1.25059 -0.0778,-2.58767 -1.32774,-7.03826 1.71882,-7.27523 z m 36.71947,13.43651 c -0.78097,-1.08627 -3.74987,-4.37448 -4.14113,-4.91069 -0.38988,-0.55006 -0.15602,-4.46442 0.0784,-7.35133 0.23386,-2.88692 -1.71831,-3.58745 -2.96821,-3.82443 -1.25007,-0.23697 -5.23518,-0.70053 -9.53182,-0.62443 -4.29715,0.0744 -10.31279,-0.0761 -15.93768,0.23698 -5.62507,0.31308 -7.65611,1.32496 -8.2034,2.49945 -0.54659,1.16237 0.31291,9.83867 0.31291,9.83867 -0.62512,0.69881 -4.29733,2.73643 -5.31285,3.75005 -1.01552,1.01189 -0.62495,3.59956 -0.78114,6.56084 -0.15603,2.97513 0.15619,4.68756 1.87502,5.70118 1.719,1.024 3.28111,-0.0761 3.8284,-0.70054 0.54659,-0.62443 0.70261,1.87502 0.70261,4.61318 0,2.73642 0.15689,12.18764 -0.0777,14.7632 -0.23438,2.57383 6.32768,1.79891 8.51561,1.72454 2.18706,-0.0882 8.20322,1.9494 12.49985,1.9494 4.29733,0 8.90601,-0.47395 12.03111,-0.62444 3.12492,-0.16259 2.89123,-4.22571 2.81288,-5.62506 -0.0778,-1.41319 -0.31291,-5.70117 0,-7.81317 0.31204,-2.11199 0.93716,-7.57446 0.93716,-7.57446 0,0 2.11009,0.31135 2.9689,0 0.86002,-0.31308 0.86002,-3.67567 1.01621,-6.25123 0.15602,-2.58767 0.15602,-5.23761 -0.62512,-6.33771 z m -14.21886,22.81334 c -0.62218,0.0623 -1.17223,1.02573 -1.17223,1.72454 0,0.70053 0.39126,1.56367 1.01621,1.48756 0.62495,-0.0865 1.17085,-0.47568 1.2499,-1.48756 0.0778,-1.01189 -0.23507,-1.79892 -1.09388,-1.72454"
       style="fill-opacity:1;fill-rule:nonzero;stroke:none"
       id="path3050"
       inkscape:connector-curvature="0"
       inkscape:transform-center-x="8.6428766"
       inkscape:transform-center-y="-10.083356" />
  </g>
</svg>
