<?xml version="1.0" encoding="UTF-8" standalone="no"?>
<!-- Created with Inkscape (http://www.inkscape.org/) -->

<svg
   xmlns:dc="http://purl.org/dc/elements/1.1/"
   xmlns:cc="http://creativecommons.org/ns#"
   xmlns:rdf="http://www.w3.org/1999/02/22-rdf-syntax-ns#"
   xmlns:svg="http://www.w3.org/2000/svg"
   xmlns="http://www.w3.org/2000/svg"
   xmlns:sodipodi="http://sodipodi.sourceforge.net/DTD/sodipodi-0.dtd"
   xmlns:inkscape="http://www.inkscape.org/namespaces/inkscape"
   width="75"
   height="75"
   id="svg3568"
   version="1.1"
   inkscape:version="0.48.4 r9939"
   viewBox="0 0 75 75"
   sodipodi:docname="apple.svg">
  <defs
     id="defs3570" />
  <sodipodi:namedview
     id="base"
     pagecolor="#ffffff"
     bordercolor="#666666"
     borderopacity="1.0"
     inkscape:pageopacity="0.0"
     inkscape:pageshadow="2"
     inkscape:zoom="2.4375416"
     inkscape:cx="27.84641"
     inkscape:cy="39.673425"
     inkscape:document-units="px"
     inkscape:current-layer="layer1"
     showgrid="false"
     fit-margin-top="0"
     fit-margin-left="0"
     fit-margin-right="0"
     fit-margin-bottom="0"
     inkscape:window-width="467"
     inkscape:window-height="372"
     inkscape:window-x="152"
     inkscape:window-y="148"
     inkscape:window-maximized="0" />
  <metadata
     id="metadata3573">
    <rdf:RDF>
      <cc:Work
         rdf:about="">
        <dc:format>image/svg+xml</dc:format>
        <dc:type
           rdf:resource="http://purl.org/dc/dcmitype/StillImage" />
        <dc:title></dc:title>
      </cc:Work>
    </rdf:RDF>
  </metadata>
  <g
     inkscape:label="Layer 1"
     inkscape:groupmode="layer"
     id="layer1"
     transform="translate(-391.1563,-518.81881)">
    <path
       d="m 461.64502,543.34416 c -1.18328,0.81254 -3.13317,1.18277 -3.62091,1.99696 -0.4865,0.81418 -0.0692,5.9188 -0.34731,9.10182 -0.27886,3.18137 -3.55169,5.696 -4.24769,5.25205 -0.69677,-0.44395 1.53121,-2.66371 2.50623,-5.84508 0.97486,-3.18138 -2.38938,-4.34122 -4.0604,-3.94641 -1.67102,0.3948 -5.94215,2.86193 -6.77796,2.46711 -0.83521,-0.39644 2.6929,-4.63773 3.89961,-6.7084 1.20733,-2.07232 1.48558,-3.94642 -1.48557,-5.62394 -2.971,-1.6775 -6.77612,0.4931 -7.7052,0.29652 -0.92801,-0.19822 0.19269,-0.77323 0.65037,-0.98619 0.95128,-0.44396 2.87774,-1.62837 6.35882,-1.55465 3.48109,0.0737 6.6141,1.70209 8.63367,3.77441 2.01848,2.07067 4.52532,0.95998 5.57001,0.29487 1.04361,-0.66511 1.94927,-2.44091 2.01848,-2.21976 0.0704,0.22116 0.2095,0.74047 0.3487,1.62837 0.13905,0.8879 -0.55711,1.2565 -1.74085,2.07232 z m -9.95614,15.04355 c -1.57838,2.66371 -3.899,3.6499 -13.83294,10.35831 -9.93256,6.71006 -20.05134,7.39974 -25.3431,8.18935 -5.29116,0.78797 -14.38928,-1.57922 -17.17421,-8.286 -2.78509,-6.71005 -0.92863,-13.71498 2.13517,-18.15448 3.06333,-4.43952 12.43955,-8.7791 16.0603,-9.37049 3.62076,-0.59303 11.41875,2.36719 15.31775,3.35339 3.89899,0.98619 8.2623,-1.67751 8.2623,-1.67751 0.64975,1.67751 1.48496,1.08612 3.06379,0.0999 1.57699,-0.98783 4.17725,-2.46711 6.40523,-1.08611 2.22798,1.38099 -0.27825,4.53779 -2.87835,7.49802 -2.59902,2.95858 -1.48496,5.03089 1.20732,5.32741 2.69168,0.29487 6.49787,-2.46712 7.98345,-2.36883 1.48557,0.0999 0.37151,3.45331 -1.20671,6.11702 z m 13.46066,-19.23734 c -0.18483,-2.07231 -0.83582,-4.4395 -1.76367,-3.74983 -0.92801,0.69133 -1.67103,3.65154 -2.78509,4.43952 -1.11391,0.7896 -2.69228,1.18441 -4.54875,-0.49146 -1.85647,-1.67916 -4.36315,-3.65154 -9.74711,-3.74983 -5.38519,-0.0983 -9.5629,3.25509 -10.30484,5.82051 0,0 -4.73481,1.67751 -7.14823,0.69132 -2.41404,-0.9862 -13.36802,-4.24293 -20.42346,-2.07233 -7.05559,2.17062 -16.61725,10.65484 -16.89612,20.61834 -0.27809,9.96515 6.49864,17.95463 16.15311,18.54766 9.65492,0.59139 15.8747,-0.78961 24.50851,-4.93261 8.63319,-4.143 14.57472,-8.48422 16.52384,-9.76692 1.94988,-1.28271 2.97115,-1.97239 2.97115,-1.97239 0,0 3.80619,0.88626 5.75608,-3.05851 1.94973,-3.94806 2.69167,-7.49967 2.59886,-9.96515 -0.0922,-2.46548 -0.37089,-3.05687 0.46493,-3.35339 0.8352,-0.29651 3.15583,-0.98783 4.26989,-2.46712 1.11391,-1.47929 0.55696,-2.46712 0.3709,-4.53781"
       style="fill:#231f20;fill-opacity:1;fill-rule:nonzero;stroke:none"
       id="path3104"
       inkscape:connector-curvature="0" />
  </g>
</svg>
