<?xml version="1.0" encoding="UTF-8" standalone="no"?>
<!-- Created with Inkscape (http://www.inkscape.org/) -->

<svg
   xmlns:dc="http://purl.org/dc/elements/1.1/"
   xmlns:cc="http://creativecommons.org/ns#"
   xmlns:rdf="http://www.w3.org/1999/02/22-rdf-syntax-ns#"
   xmlns:svg="http://www.w3.org/2000/svg"
   xmlns="http://www.w3.org/2000/svg"
   xmlns:sodipodi="http://sodipodi.sourceforge.net/DTD/sodipodi-0.dtd"
   xmlns:inkscape="http://www.inkscape.org/namespaces/inkscape"
   width="75"
   height="75"
   id="svg3568"
   version="1.1"
   inkscape:version="0.48.4 r9939"
   viewBox="0 0 75 75"
   sodipodi:docname="banana.svg">
  <defs
     id="defs3570" />
  <sodipodi:namedview
     id="base"
     pagecolor="#ffffff"
     bordercolor="#666666"
     borderopacity="1.0"
     inkscape:pageopacity="0.0"
     inkscape:pageshadow="2"
     inkscape:zoom="2.4375416"
     inkscape:cx="27.84641"
     inkscape:cy="39.673425"
     inkscape:document-units="px"
     inkscape:current-layer="layer1"
     showgrid="false"
     fit-margin-top="0"
     fit-margin-left="0"
     fit-margin-right="0"
     fit-margin-bottom="0"
     inkscape:window-width="467"
     inkscape:window-height="372"
     inkscape:window-x="152"
     inkscape:window-y="148"
     inkscape:window-maximized="0" />
  <metadata
     id="metadata3573">
    <rdf:RDF>
      <cc:Work
         rdf:about="">
        <dc:format>image/svg+xml</dc:format>
        <dc:type
           rdf:resource="http://purl.org/dc/dcmitype/StillImage" />
        <dc:title></dc:title>
      </cc:Work>
    </rdf:RDF>
  </metadata>
  <g
     inkscape:label="Layer 1"
     inkscape:groupmode="layer"
     id="layer1"
     transform="translate(-391.1563,-518.81881)">
    <path
       d="m 437.06694,561.99639 c 1.87502,-0.26292 1.92639,-2.08778 1.77037,-2.59977 -0.15619,-0.52584 -0.98853,-1.36303 -1.77037,-0.67633 -0.78097,0.67633 -0.0521,0.77492 0.5203,1.13816 0.57358,0.36324 -0.26015,0.6746 -0.8851,0.6746 -0.62495,0 -0.83373,-0.41168 -0.93716,-0.87525 -0.10413,-0.47394 0.92972,-0.83718 1.09318,-1.41145 0.41617,-1.46335 -1.35334,-0.77492 -2.34326,0.88735 -0.98974,1.66226 0.67702,3.12561 2.55204,2.86269 z m -5.15666,0.36151 c 0.62495,0.47568 0.46893,0.47568 -0.46893,0.98768 -0.93716,0.52583 -0.52099,-0.0502 -1.198,-0.6746 -0.67702,-0.62442 0.21829,-1.31286 0.52099,-1.39934 0.67701,-0.21276 0.52082,0.62443 1.14594,1.08626 z m -3.12509,0.11244 c 0.15619,1.08799 0.88527,2.23826 2.18793,2.23826 1.30127,0 2.96821,-1.04994 2.60393,-2.1881 -0.3648,-1.15027 -0.62495,-1.46162 -1.19784,-1.24886 -0.57306,0.19892 -0.41686,-1.67611 -2.03121,-1.04995 -0.9344,0.36152 -1.71883,1.14854 -1.56281,2.24865 z m 0.31291,-6.31177 c 1.14525,-0.77492 1.61418,-2.07567 1.04112,-2.96302 -0.57289,-0.88735 -1.30197,-0.78702 -1.2499,-0.21275 0.0521,0.57599 -0.15602,2.66377 -0.93717,2.1881 -0.78183,-0.46357 -1.30265,-1.25059 -0.6777,-1.76259 0.62495,-0.52584 1.09388,-0.31308 0.46893,-1.04995 -0.31966,-0.37534 -1.0413,-0.15048 -1.45816,0.62444 -0.41687,0.78875 -0.93786,1.36302 -0.15602,2.50118 0.78097,1.15026 1.82295,1.46162 2.9689,0.67459 z m -9.11479,1.1987 c -0.78114,1.20043 -1.51091,1.77643 -0.20878,3.17578 1.30266,1.41318 3.38577,0.52583 4.11485,-0.10033 0.7289,-0.62443 0.15602,-2.44929 -0.521,-2.33686 -0.67701,0.10033 -0.52099,0.67459 -0.31221,0.87524 0.20808,0.21276 -0.41687,0.62443 -0.62495,0.88735 -0.20878,0.26292 -0.3648,0.11243 -1.14595,-0.31308 -0.78114,-0.41167 -0.36479,-0.82508 -0.0521,-1.0361 0.31222,-0.21276 0.74119,-0.10033 1.0413,-0.41341 0.67771,-0.73859 -1.51022,-1.93729 -2.29119,-0.73859 z m -1.719,-6.92409 c 1.04199,0.47568 2.70806,-0.67459 3.22905,-1.34919 0.52099,-0.67632 -0.20809,-1.77642 -0.57288,-1.87502 -0.36428,-0.11243 -0.521,0.62443 -0.521,0.62443 0,0 -0.20808,0.72476 -0.67701,1.29903 -0.46824,0.576 -1.0413,0.21275 -1.45816,-0.26119 -0.41686,-0.46357 -0.20809,-1.56367 0.15602,-1.66227 0.36497,-0.11243 1.48929,-0.17643 1.56298,-0.47567 0.36411,-1.44951 -2.76081,-0.82508 -3.28111,0.47567 -0.521,1.29903 0.5203,2.76237 1.56211,3.22421 z m 32.76013,15.00018 c -0.78115,0.67459 -3.38456,1.72453 -6.3007,3.12388 -2.91753,1.41318 -6.98048,2.55134 -9.79249,3.28821 -2.81288,0.72475 -8.28175,-0.0623 -12.76088,-1.3613 -4.47895,-1.30075 -7.18718,-4.01296 -10.3121,-7.96365 -3.12492,-3.9628 -4.6879,-10.67413 -4.21897,-15.00018 0.46893,-4.32431 3.20951,-10.23651 3.54196,-10.67413 0.46824,-0.62443 1.71814,0.10033 2.65599,1.25059 0.93717,1.13643 -0.62495,2.02378 -1.92691,4.99891 -1.30214,2.96302 -2.03104,9.62592 -1.14594,13.27564 0.8851,3.64972 4.47895,8.9617 9.21891,11.72407 4.7391,2.75027 12.34384,1.45124 15.57289,1.03784 3.22974,-0.41168 12.86483,-5.57491 13.33376,-5.83782 0.46823,-0.26119 2.03104,0.0502 2.91614,0.52583 0.88579,0.46184 0,0.93751 -0.78166,1.61211 z m -34.42707,-25.15021 c 1.30214,0.20065 5.31285,2.38703 6.77101,4.06313 1.45885,1.66226 4.84392,3.90053 7.08375,5.04907 2.23912,1.13815 5.05269,2.23826 6.40603,3.48712 1.35403,1.25059 8.229,7.60041 9.21892,8.27674 0.98992,0.6867 -2.44722,2.13621 -4.06209,3.12388 -1.61556,0.99978 -5.46887,2.71221 -11.04187,3.33837 -5.57369,0.62443 -9.63578,-1.40108 -13.43789,-4.32604 -3.80193,-2.91113 -5.41681,-10.57381 -5.31285,-13.01273 0.10413,-2.44929 2.60479,-8.60019 2.9689,-9.22462 0.36497,-0.62443 0.88181,-0.8614 1.40609,-0.77492 z m 38.38572,23.58826 c -1.09319,-0.83718 -6.71808,-2.81253 -9.68716,-5.21339 -2.9689,-2.38702 -5.98969,-5.87414 -9.27149,-7.96192 -3.28112,-2.08778 -8.12504,-4.73772 -11.24996,-7.03825 -3.1251,-2.2867 -8.17711,-5.04907 -9.16616,-5.82399 -0.98992,-0.78702 -3.69798,-2.76237 -3.69798,-2.76237 -0.62512,-0.21275 -1.35403,0.10033 -2.49997,1.24886 -1.14595,1.15027 -6.094,11.51305 -3.59403,19.11347 2.49998,7.60041 6.35415,12.03715 10.78103,14.99844 4.42706,2.97686 13.43789,4.9522 18.28251,4.01296 4.84392,-0.93578 8.2283,-2.28669 12.29108,-4.32431 4.06225,-2.02551 8.90618,-5.41231 7.81213,-6.2495"
       style="fill:#231f20;fill-opacity:1;fill-rule:nonzero;stroke:none"
       id="path3080"
       inkscape:connector-curvature="0" />
  </g>
</svg>
