<?xml version="1.0" encoding="iso-8859-1"?>
<!-- Generator: Adobe Illustrator 16.0.0, SVG Export Plug-In . SVG Version: 6.00 Build 0)  -->
<!DOCTYPE svg PUBLIC "-//W3C//DTD SVG 1.1//EN" "http://www.w3.org/Graphics/SVG/1.1/DTD/svg11.dtd">
<svg version="1.1" id="Capa_1" xmlns="http://www.w3.org/2000/svg" xmlns:xlink="http://www.w3.org/1999/xlink" x="0px" y="0px"
	 width="612.002px" height="612.002px" viewBox="0 0 612.002 612.002" style="enable-background:new 0 0 612.002 612.002;"
	 xml:space="preserve">
<g>
	<g>
		<g>
			<path d="M503.626,444.657c12.869,0,24.544,5.239,32.971,13.646c8.428,8.427,13.666,20.102,13.666,32.971
				s-5.238,24.544-13.666,32.971c-8.427,8.428-20.081,13.646-32.971,13.646c-12.869,0-24.544-5.221-32.971-13.646
				c-8.428-8.426-13.646-20.102-13.646-32.971s5.239-24.544,13.646-32.971C479.082,449.877,490.757,444.657,503.626,444.657
				L503.626,444.657z M523.069,471.831c-4.96-4.961-11.854-8.049-19.443-8.049s-14.463,3.088-19.443,8.049
				c-4.979,4.98-8.049,11.854-8.049,19.443s3.088,14.463,8.049,19.443c4.96,4.961,11.854,8.049,19.443,8.049
				s14.463-3.088,19.443-8.049c4.961-4.98,8.049-11.854,8.049-19.443S528.03,476.812,523.069,471.831z"/>
			<path d="M229.103,432.844c-2.709,4.502-8.566,5.937-13.069,3.228c-4.502-2.71-5.937-8.566-3.227-13.069l14.025-23.089
				c1.793-2.949,4.92-4.582,8.148-4.582v-0.08h290.242c5.279,0,9.563,4.283,9.563,9.563s-4.283,9.562-9.563,9.562H240.299
				L229.103,432.844z"/>
			<path d="M211.811,266.157c-5.279,0-9.563-4.283-9.563-9.563c0-5.28,4.283-9.563,9.563-9.563h364.191l7.79-41.577
				c0.956-5.18,5.956-8.586,11.116-7.63c5.18,0.956,8.586,5.957,7.63,11.116l-9.104,48.609c-0.478,4.821-4.582,8.606-9.521,8.606
				H211.811V266.157z"/>
			<path d="M593.175,197.626c5.279,0,9.563,4.283,9.563,9.563c0,5.28-4.283,9.563-9.563,9.563h-402.96
				c-5.279,0-9.563-4.283-9.563-9.563c0-5.28,4.283-9.563,9.563-9.563H593.175z"/>
			<path d="M197.925,364.97c-5.279,0-9.563-4.283-9.563-9.563s4.283-9.562,9.563-9.562h359.57l7.789-41.577
				c0.956-5.18,5.957-8.586,11.137-7.63s8.586,5.957,7.63,11.137l-9.104,48.609c-0.479,4.819-4.582,8.604-9.522,8.604h-367.5V364.97
				z"/>
			<path d="M80.943,74.11c5.279,0,9.563,4.283,9.563,9.563s-4.283,9.563-9.563,9.563H9.563C4.284,93.236,0,88.953,0,83.673
				s4.284-9.563,9.564-9.563H80.943z"/>
			<path d="M206.71,351.642c2.072,4.842-0.16,10.479-5,12.551c-4.841,2.072-10.479-0.159-12.551-5L72.158,87.438
				c-2.072-4.841,0.159-10.459,5-12.531c4.841-2.072,10.479,0.159,12.551,5L206.71,351.642z"/>
			<path d="M574.667,296.479c5.26,0,9.523,4.263,9.523,9.522c0,5.26-4.265,9.522-9.523,9.522l-341.222-0.021
				c-3.904,0-7.271-2.351-8.726-5.718h-0.02l-21.615-49.406c-2.092-4.821,0.12-10.439,4.941-12.551
				c4.821-2.112,10.439,0.12,12.551,4.94l19.125,43.689L574.667,296.479z"/>
			<path d="M39.924,129.274c2.092,4.821-0.12,10.439-4.94,12.551c-4.821,2.092-10.439-0.12-12.551-4.94L0.818,87.479
				c-2.092-4.821,0.12-10.439,4.94-12.551c4.821-2.092,10.439,0.12,12.551,4.94L39.924,129.274z"/>
			<path d="M198.961,203.383c2.092,4.821-0.12,10.439-4.941,12.551c-4.821,2.112-10.439-0.12-12.551-4.94l-21.615-49.406
				c-2.092-4.821,0.12-10.459,4.941-12.551c1.235-0.538,2.53-0.797,3.805-0.797v-0.02h433.838c5.279,0,9.563,4.303,9.563,9.563
				c0,5.279-4.283,9.563-9.563,9.563H183.183L198.961,203.383z"/>
			<path d="M54.507,123.517c5.279,0,9.563,4.283,9.563,9.562c0,5.28-4.283,9.563-9.563,9.563H31.179
				c-5.279,0-9.563-4.283-9.563-9.563c0-5.28,4.283-9.562,9.563-9.562H54.507z"/>
			<path d="M182.485,444.657c12.87,0,24.544,5.239,32.971,13.646c8.427,8.427,13.646,20.102,13.646,32.971
				s-5.22,24.544-13.646,32.971c-8.426,8.428-20.101,13.646-32.971,13.646s-24.544-5.221-32.971-13.646
				c-8.427-8.426-13.646-20.102-13.646-32.971s5.22-24.544,13.646-32.971C157.94,449.876,169.616,444.657,182.485,444.657
				L182.485,444.657z M201.929,471.831c-4.98-4.961-11.854-8.049-19.444-8.049c-7.59,0-14.463,3.088-19.444,8.049
				c-4.96,4.98-8.048,11.854-8.048,19.443s3.088,14.463,8.048,19.443c4.98,4.961,11.854,8.049,19.444,8.049
				c7.59,0,14.463-3.088,19.444-8.049c4.96-4.98,8.048-11.854,8.048-19.443S206.89,476.812,201.929,471.831z"/>
		</g>
	</g>
</g>
<g>
</g>
<g>
</g>
<g>
</g>
<g>
</g>
<g>
</g>
<g>
</g>
<g>
</g>
<g>
</g>
<g>
</g>
<g>
</g>
<g>
</g>
<g>
</g>
<g>
</g>
<g>
</g>
<g>
</g>
</svg>
